<svg width="181" height="60" viewBox="0 0 181 60" fill="none" xmlns="http://www.w3.org/2000/svg">
<path d="M85.0506 27.1773H94.9691V37.8804H101.064V12.5059H94.9691V21.7528H85.0506V12.5059H78.9554V37.8804H85.0506V27.1773ZM124.725 37.8804H131.464C128.624 31.2546 124.687 20.4422 122.189 12.5059H112.762C109.734 19.6413 105.607 30.7813 103.411 37.8804H109.923C110.377 36.3149 110.945 34.3854 111.626 32.2739H122.491C123.286 34.4222 124.082 36.3881 124.725 37.8804ZM117.608 17.6028C118.403 20.2968 119.539 23.755 120.75 27.2136H113.178C114.39 23.6823 115.601 20.2602 116.624 17.6028H117.608ZM149.522 12.5059V27.8326C149.522 31.1817 149.408 32.9294 144.335 32.9294C139.262 32.9294 139.186 31.2185 139.186 27.8326V12.5059H133.016V30.7814C133.016 36.8977 137.407 38.39 144.335 38.39C151.225 38.39 155.654 36.8975 155.654 30.7814V12.5059H149.522ZM180.072 13.0882C177.99 12.3603 174.81 11.887 171.63 11.887C163.794 11.887 160.008 14.2898 160.008 20.5876C160.008 25.2841 162.658 27.0683 168.299 27.6506C173.258 28.1602 173.977 28.9245 173.977 30.5264C173.977 32.4559 172.728 33.0019 168.791 33.0019C165.914 33.0019 163.264 32.6015 161.56 32.1646L160.311 37.1888C162.431 37.9167 165.686 38.39 168.866 38.39C177.082 38.39 180.564 36.3878 180.564 30.1261C180.564 25.2842 177.876 23.0634 171.857 22.4078C167.277 21.9348 166.519 21.3525 166.519 19.7503C166.519 18.0026 167.655 17.2746 171.592 17.2746C174.507 17.2746 177.233 17.6752 178.823 18.1121L180.072 13.088V13.0882Z" fill="#24272A"/>
<path d="M8.03801 12.5059H0.0504687C2.39745 15.3093 6.18322 20.1873 9.89324 25.0658C6.06931 30.199 2.13251 35.3322 0.0125732 37.8804H7.62206C9.47682 35.6232 11.5215 33.0021 13.7169 30.1626C15.8369 33.0387 17.7298 35.7325 19.2065 37.8804H26.8914C24.7715 34.8223 21.1751 29.8714 17.5785 24.9565C20.7965 20.5513 24.0143 16.0733 26.4373 12.5056H18.8279C17.5785 14.5078 15.7232 17.2019 13.7551 19.8596C11.5594 17.0202 9.59097 14.4715 8.03851 12.5056L8.03801 12.5059Z" fill="#24272A"/>
<path fill-rule="evenodd" clip-rule="evenodd" d="M39.2108 16.2935V37.907H33.0637V17.1456L33.0322 13.012L51.9148 0.50708L58.0307 4.55703V0.519379H64.1778V8.62797L70.1555 12.4621L51.6944 24.7013V37.907H45.5471V21.4203H45.6666L45.6206 21.3507L58.9381 12.5312L51.9146 7.88002L39.2106 16.2935H39.2108ZM70.4511 28.9215L64.1778 33.0759V37.907H58.0307V29.7739L70.4511 21.5485V28.9215Z" fill="#F5D54E"/>
<path d="M2.62555 56.6204C2.87947 56.606 3.0927 56.5699 3.26522 56.51C3.43775 56.453 3.6103 56.3449 3.78026 56.1847C3.95253 56.0265 4.09637 55.8084 4.21386 55.5305C4.32853 55.255 4.44142 54.8933 4.54662 54.4428C4.65208 53.9926 4.74293 53.4489 4.82459 52.8072L5.41382 47.9922H11.2779V56.5149H12.1546V59.3464H10.9615V57.5787H3.81866V59.3464H2.6258V56.6204H2.62555ZM4.53457 56.5149H10.0845V49.0557H6.44844L5.9813 52.8883C5.76091 54.7306 5.27739 55.9377 4.53457 56.5152V56.5149ZM13.8742 55.3247C13.4812 54.5721 13.2849 53.7292 13.2849 52.7926C13.2849 51.8563 13.4812 51.0128 13.8742 50.2608C14.2671 49.5088 14.8253 48.9144 15.5533 48.4833C16.279 48.0497 17.1076 47.8345 18.0398 47.8345C18.9644 47.8345 19.7929 48.0497 20.5212 48.4833C21.2494 48.9144 21.8097 49.5088 22.2052 50.2608C22.6004 51.0128 22.799 51.8563 22.799 52.7926C22.799 53.7295 22.6004 54.5724 22.2052 55.3247C21.8099 56.0767 21.2494 56.6708 20.5212 57.1018C19.7929 57.5355 18.9644 57.7512 18.0398 57.7512C17.1078 57.7512 16.279 57.5355 15.5533 57.1018C14.8251 56.6708 14.2668 56.0769 13.8742 55.3247ZM14.521 52.7926C14.521 53.5329 14.6623 54.1961 14.9449 54.7856C15.2298 55.3748 15.6396 55.8394 16.1784 56.1798C16.7151 56.5177 17.3356 56.6877 18.0398 56.6877C18.7366 56.6877 19.3547 56.5177 19.8958 56.1798C20.4375 55.8394 20.8493 55.3748 21.1344 54.7856C21.4193 54.1963 21.5634 53.5331 21.5634 52.7926C21.5634 52.0477 21.4196 51.3819 21.1344 50.7924C20.8495 50.2032 20.4377 49.7409 19.8984 49.4031C19.3619 49.0652 18.7417 48.8978 18.0398 48.8978C16.9763 48.8978 16.1233 49.2618 15.4837 49.9923C14.8419 50.7231 14.5207 51.6546 14.5207 52.7924L14.521 52.7926ZM24.6627 57.5787V47.9924H26.368L29.3455 55.2074L32.3351 47.9924H34.0476V57.5787H32.8548V49.6905L29.5901 57.5787H29.1061L25.8558 49.6905V57.5787H24.6627ZM35.2913 57.5787L39.1429 47.9924H40.6232L44.4916 57.5787H43.1289L42.2811 55.4516H37.5093L36.659 57.5787H35.2913ZM37.8518 54.3881H41.9214L39.8955 49.2285L37.8521 54.3881H37.8518ZM45.6942 57.5091C45.5503 57.3678 45.4784 57.1976 45.4784 56.999C45.4784 56.8026 45.5501 56.6301 45.6942 56.4862C45.8378 56.3426 46.0103 56.271 46.2066 56.271C46.4055 56.271 46.5755 56.3426 46.7171 56.4862C46.8584 56.6301 46.9303 56.8026 46.9303 56.999C46.9303 57.1976 46.8586 57.3675 46.7171 57.5091C46.5758 57.6504 46.4055 57.7223 46.2066 57.7223C46.0103 57.7223 45.8378 57.6506 45.6942 57.5091ZM51.8715 57.5787L56.2097 52.5461L52.2166 47.9922H53.7112L57.563 52.5049V47.9922H58.7561V52.5049L62.6217 47.9922H64.1166L60.1045 52.5461L64.4613 57.5787H62.967L59.3307 53.2695L58.7561 53.9306V57.579H57.563V53.9306L56.9883 53.2695L53.352 57.5787H51.8718H51.8715ZM65.808 57.5787V47.9924H72.0887V49.056H67.0008V52.146H71.9738V53.2096H67.0008V56.5152H72.0887V57.5787H65.808ZM73.3294 57.7512V56.6877C73.6384 56.6877 73.8995 56.6373 74.1104 56.5367C74.3188 56.4363 74.5176 56.2469 74.7068 55.9692C74.8936 55.6912 75.0516 55.296 75.1832 54.7835C75.315 54.2711 75.4273 53.6122 75.5256 52.8075L76.1103 47.9924H81.9743V57.5787H80.7812V49.056H77.1452L76.678 52.8886C76.6041 53.483 76.5201 54.012 76.4218 54.4815C76.3235 54.9486 76.2157 55.351 76.0983 55.6915C75.9833 56.0314 75.8469 56.3237 75.6936 56.5682C75.5402 56.8147 75.382 57.0135 75.2167 57.1643C75.0539 57.3179 74.867 57.4374 74.6564 57.5239C74.4455 57.6099 74.2371 57.6701 74.0311 57.7011C73.8253 57.7343 73.5928 57.7515 73.3292 57.7515L73.3294 57.7512ZM84.2137 57.5787V47.9924H90.4945V49.056H85.4068V52.146H90.3793V53.2096H85.4068V56.5152H90.4945V57.5787H84.2137ZM91.6852 56.1681L92.3943 55.4109C92.6889 55.7895 93.0961 56.0985 93.6158 56.3332C94.1356 56.5702 94.6842 56.6877 95.264 56.6877C96.0186 56.6877 96.6078 56.5269 97.0366 56.2059C97.4656 55.8878 97.6788 55.449 97.6788 54.891C97.6788 54.3164 97.4558 53.8899 97.0102 53.612C96.5673 53.334 95.9586 53.1952 95.1923 53.1952H93.2377V52.1317H95.1756C95.6187 52.1317 96.007 52.079 96.3446 51.9738C96.6823 51.8683 96.958 51.6955 97.1712 51.4513C97.3844 51.2071 97.4921 50.9102 97.4921 50.5531C97.4921 50.0381 97.2741 49.638 96.8359 49.3485C96.3974 49.0585 95.8491 48.9124 95.1902 48.9124C94.1052 48.9124 93.1998 49.3002 92.4739 50.0763L91.8153 49.3265C92.1939 48.8857 92.6825 48.5287 93.2812 48.2558C93.8802 47.985 94.546 47.8485 95.2742 47.8485C95.9113 47.8485 96.4862 47.9468 97.0035 48.1432C97.5188 48.3395 97.9352 48.6364 98.2516 49.0293C98.5703 49.4222 98.728 49.8822 98.728 50.4067C98.728 50.7326 98.6632 51.0343 98.534 51.3075C98.4068 51.5829 98.2368 51.8056 98.0235 51.9827C97.8106 52.1578 97.5879 52.2988 97.3601 52.4066C97.1305 52.5144 96.8955 52.5888 96.6587 52.6318C96.8405 52.6462 97.0299 52.6869 97.2262 52.754C97.4226 52.821 97.6191 52.9219 97.8155 53.0532C98.0118 53.1827 98.1869 53.336 98.3425 53.5131C98.4958 53.6882 98.6225 53.9035 98.7231 54.1625C98.8214 54.4188 98.8716 54.6939 98.8716 54.9911C98.8716 55.7936 98.5409 56.4548 97.8822 56.9721C97.2236 57.4917 96.3587 57.7507 95.2929 57.7507C94.4878 57.7507 93.7647 57.6023 93.1251 57.3028C92.4828 57.003 92.0039 56.6247 91.6855 56.1673L91.6852 56.1681ZM100.984 55.3249C100.591 54.5724 100.395 53.7294 100.395 52.7929C100.395 51.8565 100.591 51.0131 100.984 50.2611C101.377 49.509 101.935 48.9147 102.663 48.4836C103.389 48.05 104.217 47.8347 105.149 47.8347C106.074 47.8347 106.903 48.05 107.631 48.4836C108.359 48.9147 108.919 49.509 109.315 50.2611C109.71 51.0131 109.909 51.8565 109.909 52.7929C109.909 53.7297 109.71 54.5726 109.315 55.3249C108.92 56.0769 108.359 56.671 107.631 57.1021C106.903 57.5357 106.074 57.7515 105.149 57.7515C104.217 57.7515 103.389 57.5357 102.663 57.1021C101.935 56.671 101.376 56.0772 100.984 55.3249ZM101.631 52.7929C101.631 53.5331 101.772 54.1963 102.055 54.7858C102.339 55.3751 102.749 55.8397 103.288 56.1801C103.825 56.518 104.445 56.6879 105.149 56.6879C105.846 56.6879 106.464 56.518 107.006 56.1801C107.547 55.8397 107.959 55.3751 108.244 54.7858C108.529 54.1966 108.673 53.5334 108.673 52.7929C108.673 52.048 108.529 51.3822 108.244 50.7927C107.959 50.2035 107.547 49.7412 107.008 49.4033C106.472 49.0654 105.851 48.898 105.149 48.898C104.086 48.898 103.233 49.262 102.593 49.9925C101.952 50.7233 101.63 51.6548 101.63 52.7926L101.631 52.7929ZM111.772 57.579V47.9927H117.996V49.0562H112.965V51.8012H115.624C116.542 51.8012 117.272 52.0792 117.814 52.6352C118.357 53.1909 118.628 53.8759 118.628 54.6901C118.628 55.5069 118.36 56.1944 117.82 56.7478C117.284 57.301 116.551 57.579 115.624 57.579H111.772H111.772ZM112.965 56.5154H115.478C116.044 56.5154 116.504 56.3475 116.858 56.0096C117.215 55.672 117.392 55.2335 117.392 54.6899C117.392 54.1462 117.215 53.7077 116.858 53.3701C116.504 53.0322 116.044 52.8643 115.478 52.8643H112.965V56.5149V56.5154ZM120.206 57.579V47.9927H126.487V49.0562H121.399V52.1463H126.372V53.2098H121.399V56.5154H126.487V57.579H120.206ZM127.735 49.0562V47.9927H134.979V49.0562H131.946V57.579H130.754V49.0562H127.735H127.735ZM136.387 55.3252C135.994 54.5726 135.798 53.7297 135.798 52.7931C135.798 51.8568 135.994 51.0133 136.387 50.2613C136.78 49.5093 137.338 48.9149 138.066 48.4839C138.792 48.0503 139.621 47.835 140.553 47.835C141.477 47.835 142.306 48.0503 143.035 48.4839C143.762 48.9149 144.323 49.5093 144.718 50.2613C145.113 51.0133 145.312 51.8568 145.312 52.7931C145.312 53.73 145.113 54.5729 144.718 55.3252C144.323 56.0772 143.762 56.6713 143.035 57.1024C142.306 57.536 141.477 57.7518 140.553 57.7518C139.621 57.7518 138.792 57.536 138.066 57.1024C137.338 56.6713 136.78 56.0774 136.387 55.3252ZM137.034 52.7931C137.034 53.5334 137.175 54.1966 137.458 54.7861C137.743 55.3753 138.153 55.8399 138.691 56.1803C139.228 56.5182 139.848 56.6882 140.553 56.6882C141.25 56.6882 141.868 56.5182 142.409 56.1803C142.951 55.8399 143.362 55.3753 143.647 54.7861C143.933 54.1968 144.076 53.5336 144.076 52.7931C144.076 52.0482 143.933 51.3825 143.647 50.793C143.362 50.2037 142.951 49.7414 142.411 49.4036C141.875 49.0657 141.254 48.8983 140.553 48.8983C139.489 48.8983 138.636 49.2623 137.997 49.9928C137.355 50.7236 137.034 51.6551 137.034 52.7929L137.034 52.7931ZM147.176 57.5792V47.9929H148.369V52.1179H153.974V47.9929H155.166V57.5792H153.974V53.1814H148.369V57.5792H147.176ZM157.406 57.5792V47.9929H158.599V52.1179H164.204V47.9929H165.397V57.5792H164.204V53.1814H158.599V57.5792H157.406ZM167.838 55.3252C167.445 54.5726 167.249 53.7297 167.249 52.7931C167.249 51.8568 167.445 51.0133 167.838 50.2613C168.231 49.5093 168.789 48.9149 169.517 48.4839C170.243 48.0503 171.071 47.835 172.004 47.835C172.928 47.835 173.757 48.0503 174.485 48.4839C175.213 48.9149 175.773 49.5093 176.169 50.2613C176.564 51.0133 176.763 51.8568 176.763 52.7931C176.763 53.73 176.564 54.5729 176.169 55.3252C175.774 56.0772 175.213 56.6713 174.485 57.1024C173.757 57.536 172.928 57.7518 172.004 57.7518C171.072 57.7518 170.243 57.536 169.517 57.1024C168.789 56.6713 168.231 56.0774 167.838 55.3252ZM168.485 52.7931C168.485 53.5334 168.626 54.1966 168.909 54.7861C169.193 55.3753 169.603 55.8399 170.142 56.1803C170.679 56.5182 171.299 56.6882 172.004 56.6882C172.7 56.6882 173.318 56.5182 173.86 56.1803C174.401 55.8399 174.813 55.3753 175.098 54.7861C175.383 54.1968 175.527 53.5336 175.527 52.7931C175.527 52.0482 175.383 51.3825 175.098 50.793C174.813 50.2037 174.401 49.7414 173.862 49.4036C173.326 49.0657 172.705 48.8983 172.004 48.8983C170.94 48.8983 170.087 49.2623 169.447 49.9928C168.806 50.7236 168.484 51.6551 168.484 52.7929L168.485 52.7931ZM178.198 57.5096C178.054 57.3683 177.982 57.1981 177.982 56.9995C177.982 56.8031 178.054 56.6306 178.198 56.4868C178.342 56.3432 178.514 56.2715 178.71 56.2715C178.909 56.2715 179.079 56.3432 179.221 56.4868C179.362 56.6306 179.434 56.8031 179.434 56.9995C179.434 57.1981 179.362 57.3681 179.221 57.5096C179.08 57.6509 178.909 57.7228 178.71 57.7228C178.514 57.7228 178.342 57.6512 178.198 57.5096Z" fill="#24272A"/>
</svg>
