<svg width="169" height="64" viewBox="0 0 169 64" fill="none" xmlns="http://www.w3.org/2000/svg">
<path fill-rule="evenodd" clip-rule="evenodd" d="M0.454651 51.1404H168.922V63.2068H0.454651V51.1404Z" fill="#717170"/>
<path fill-rule="evenodd" clip-rule="evenodd" d="M5.80953 26.3752L0.454651 30.2002V45.6528H5.80953V26.3752Z" fill="#0288D1"/>
<path fill-rule="evenodd" clip-rule="evenodd" d="M25.8538 16.4473L30.1362 20.272V45.6524H25.8538V16.447V16.4473Z" fill="#0288D1"/>
<path fill-rule="evenodd" clip-rule="evenodd" d="M18.6395 12.1711L7.32771 18.9743V45.653H18.6395V12.1711Z" fill="#EF7F1A"/>
<path fill-rule="evenodd" clip-rule="evenodd" d="M13.7113 0.486328L23.9501 6.8313V45.6524H20.7776V8.42855L13.7113 12.6784V0.486328Z" fill="#0288D1"/>
<path fill-rule="evenodd" clip-rule="evenodd" d="M88.3927 37.8537C89.1519 36.8276 87.8764 35.7323 86.6746 36.9758C85.3904 38.3042 84.3348 39.6471 83.4212 41.0874C80.6301 41.81 77.7935 42.5533 75.563 41.672C73.3296 40.7897 74.2859 36.2109 75.296 35.8682C78.1204 35.4082 86.3557 35.4159 88.8132 34.4936C92.1769 27.1376 86.2515 25.677 81.8634 27.0477C74.558 29.3302 68.4826 35.8288 70.7523 42.5505C71.993 46.2252 77.4577 44.7539 82.2535 43.1223C81.5557 44.4664 80.9358 45.9124 80.3365 47.5145C79.9838 48.4578 81.1027 49.591 81.9021 48.2018C83.9439 44.6528 85.9323 41.1821 88.3932 37.854L88.3927 37.8537ZM77.1282 33.138C80.6813 28.3429 87.8009 26.3988 85.758 32.2979C82.6142 33.1063 77.8475 33.3799 77.1282 33.138Z" fill="#EF7F1A"/>
<path fill-rule="evenodd" clip-rule="evenodd" d="M55.1727 18.3037C55.54 17.847 55.0253 17.1649 54.1801 17.5017C53.3326 17.8394 52.7932 18.0544 51.9273 18.3418C50.4613 18.8284 49.6215 17.5834 51.1284 16.6796C54.9198 14.406 64.5519 11.7737 71.6682 12.9959C75.9065 15.0324 73.3888 19.5482 70.9427 21.2438C67.4915 23.6358 64.5066 25.3618 58.8763 26.9329C74.5373 26.4202 74.5309 37.494 59.4873 44.2303C54.2814 46.5617 45.3123 46.1168 42.0755 45.4521C39.0825 44.8375 40.2756 42.4854 40.8157 41.4047C45.1287 32.7665 48.8567 26.1594 55.1725 18.3034L55.1727 18.3037ZM52.1564 29.5684C50.4127 31.2611 47.6001 37.154 45.5506 40.8707C44.4433 43.2254 44.6342 44.2052 49.7126 43.7345C65.6099 41.0233 68.219 31.5539 63.8025 29.7975C60.2261 28.8046 56.6875 28.6902 52.1564 29.5684ZM62.0457 15.2495C59.0844 19.0777 56.5685 22.1 54.2182 26.132C58.9657 25.2026 68.6009 21.2952 69.3009 16.9678C68.919 14.1549 65.5971 14.6641 62.0457 15.2497V15.2495Z" fill="#EF7F1A"/>
<path fill-rule="evenodd" clip-rule="evenodd" d="M112.328 25.6486C113.025 24.8912 112.097 23.9031 111.026 24.7957C109.845 25.7796 108.859 26.7974 107.981 27.9124C104.943 26.3343 100.253 27.1099 96.1629 30.3502C90.6713 34.7004 87.0672 42.0286 92.879 44.3254C96.6643 45.8213 105.113 42.1901 107.007 39.1323C107.688 38.0339 106.521 37.6533 105.862 38.1012C94.9122 45.5451 91.2019 40.5521 96.0482 34.2448C98.9865 30.4204 104.474 28.3777 106.886 29.4372C106.235 30.4278 105.632 31.5021 105.033 32.6957C104.669 33.4211 105.468 34.4265 106.229 33.3819C108.173 30.7134 110.067 28.1033 112.328 25.6483L112.328 25.6486Z" fill="#EF7F1A"/>
<path fill-rule="evenodd" clip-rule="evenodd" d="M145.32 43.1017C146.726 42.9003 146.531 41.7484 144.593 41.6842C143.528 41.6491 142.378 41.7326 141.219 41.8956C140.707 41.4346 140.86 40.5943 140.952 39.6671C141.202 37.1556 145.322 32.4626 143.587 30.0447C141.713 27.4346 137.745 26.8584 132.514 30.9614C133.297 27.0105 127.836 24.9333 121.593 29.7394C123.537 26.2643 120.791 26.1791 118.653 26.723C117.031 27.1354 114.189 28.2652 112.734 29.0905C111.148 29.9897 111.435 30.4894 111.971 30.8469C112.698 31.332 115.667 29.6741 116.514 29.8924C117.034 30.0263 117.739 29.8115 116.744 31.3051C114.126 35.2355 111.003 39.0395 109.611 43.6385C108.147 44.0432 106.667 44.5341 105.102 45.1129C104.097 45.4845 104.172 46.768 105.885 46.3717C110.26 45.3602 114.532 44.3657 119.088 43.7132C120.494 43.5121 120.26 42.1669 118.323 42.2578C117.251 42.3082 116.227 42.394 115.232 42.5156C114.582 39.6374 119.002 33.9746 121.708 31.7641C124.033 29.8638 128.537 28.675 128.122 31.6494C127.74 34.3949 124.503 39.9241 121.968 44.0514C120.267 44.7202 118.942 45.374 118.39 45.7244C117.025 46.5909 117.907 47.5338 119.287 46.9449C123.324 45.2227 126.826 43.9846 131.383 43.3319C132.788 43.1304 132.593 41.8234 130.656 41.9143C129.983 41.946 129.284 42.0264 128.577 42.1436C127.055 40.5408 131.087 34.8818 133.735 32.6039C135.486 31.098 139.929 30.0284 139.997 32.3369C140.092 35.5563 136.948 41.0332 134.795 43.5C133.401 44.0025 132.333 44.5114 131.869 44.8843C130.608 45.8962 131.385 46.6937 132.765 46.105C136.802 44.3829 140.763 43.755 145.32 43.1028L145.32 43.1017Z" fill="#EF7F1A"/>
<path fill-rule="evenodd" clip-rule="evenodd" d="M161.771 23.2057C162.588 22.3861 161.777 21.6243 160.559 22.6323C157.535 25.1362 155.491 27.6335 153.345 30.9685C152.873 31.7029 153.55 32.5023 154.472 31.4052C155.067 30.6959 155.66 29.9907 156.255 29.2898C157.873 28.6824 159.753 28.181 161.437 28.3645C164.171 28.663 164.722 29.8717 163.576 32.1831C159.094 32.1401 150.102 33.4685 147.271 38.3686C146.117 40.7987 146.503 43.6792 147.745 44.4071C151.014 46.3236 156.179 43.7296 157.695 43.1798C155.099 46.1426 157.711 47.6784 159.032 46.6927C161.139 45.12 163.766 44.5239 166.363 44.0199C167.57 43.7854 167.304 41.9854 165.943 41.9199C165.135 41.881 163.121 43.2445 162.354 42.9891C161.63 42.7479 161.9 41.6808 162.316 41.0417C164.097 38.3038 165.843 35.57 167.623 32.4884C168.705 30.6165 168.619 27.4722 166.554 26.4936C164.472 25.5069 160.868 26.5005 159.059 26.0728C159.931 25.1076 160.828 24.1515 161.771 23.206V23.2057ZM162.296 34.569C160.998 34.0217 154.452 35.7933 151.184 38.5401C150.26 39.3172 150.069 41.1504 151.185 41.6698C152.528 42.2946 155.699 41.5346 158.821 40.3349C160.221 38.2472 162.309 35.4728 162.296 34.569H162.296Z" fill="#EF7F1A"/>
<path d="M14.0144 58.0699L15.4665 58.5234C15.2435 59.3548 14.8719 59.9717 14.3533 60.3761C13.8349 60.7785 13.1779 60.9808 12.3813 60.9808C11.3943 60.9808 10.5836 60.638 9.94727 59.9525C9.31298 59.2668 8.99455 58.3302 8.99455 57.1404C8.99455 55.8836 9.31426 54.9063 9.95213 54.2106C10.5903 53.5144 11.4304 53.1665 12.4709 53.1665C13.3801 53.1665 14.118 53.4407 14.685 53.9874C15.0237 54.3107 15.276 54.7748 15.4455 55.3812L13.9624 55.7398C13.8744 55.3494 13.6911 55.0402 13.4128 54.8132C13.1328 54.5866 12.7939 54.474 12.3961 54.474C11.845 54.474 11.3971 54.6744 11.0551 55.0771C10.7111 55.4777 10.5398 56.1278 10.5398 57.0281C10.5398 57.9808 10.7093 58.6606 11.0464 59.0651C11.3851 59.471 11.8243 59.6733 12.3652 59.6733C12.7645 59.6733 13.1085 59.545 13.3954 59.2862C13.6824 59.028 13.89 58.6238 14.0144 58.0701V58.0699ZM18.1664 60.854V54.5792H15.9679V53.3035H21.8588V54.5792H19.6705V60.854H18.1664ZM22.832 60.854V53.3035H25.2363C26.1473 53.3035 26.7404 53.3403 27.0168 53.4161C27.442 53.5302 27.7978 53.7762 28.085 54.1558C28.3719 54.5357 28.5155 55.0261 28.5155 55.6271C28.5155 56.0912 28.4324 56.4793 28.268 56.7957C28.1022 57.112 27.8928 57.3601 27.6388 57.541C27.3847 57.7205 27.1254 57.8398 26.8627 57.8979C26.5046 57.97 25.9878 58.0069 25.3103 58.0069H24.3353V60.854H22.8317H22.832ZM24.3356 54.5792V56.7306H25.1534C25.7429 56.7306 26.1353 56.6902 26.3342 56.6111C26.5328 56.5323 26.6884 56.4091 26.8011 56.2387C26.9132 56.07 26.9703 55.8747 26.9703 55.6497C26.9703 55.3737 26.8909 55.1472 26.7337 54.9678C26.5745 54.7883 26.3756 54.676 26.132 54.6301C25.9538 54.5969 25.5962 54.5792 25.0569 54.5792H24.3358H24.3356ZM29.3019 57.1243C29.3019 56.3544 29.416 55.7078 29.6426 55.1841C29.81 54.7991 30.0419 54.4528 30.3337 54.1469C30.6258 53.841 30.9457 53.6145 31.2931 53.465C31.7564 53.2663 32.2903 53.1663 32.8957 53.1663C33.9915 53.1663 34.8661 53.5126 35.5248 54.2032C36.1816 54.8956 36.51 55.8573 36.51 57.0892C36.51 58.3107 36.1834 59.2668 35.5317 59.9558C34.88 60.6465 34.0071 60.9912 32.9162 60.9912C31.8119 60.9912 30.9319 60.6485 30.2802 59.9612C29.6285 59.276 29.3019 58.3302 29.3019 57.1246V57.1243ZM30.8472 57.0734C30.8472 57.9293 31.0427 58.5777 31.4315 59.0208C31.8204 59.4618 32.3149 59.6832 32.9128 59.6832C33.5126 59.6832 34.0038 59.4639 34.3893 59.0262C34.7732 58.5867 34.9649 57.9293 34.9649 57.0521C34.9649 56.1857 34.7781 55.5388 34.4031 55.1137C34.0299 54.6862 33.5338 54.4738 32.9131 54.4738C32.2942 54.4738 31.7948 54.69 31.4162 55.1206C31.0376 55.5529 30.8474 56.2033 30.8474 57.0734H30.8472ZM37.701 53.3035H39.1012V58.3302L42.1088 53.3035H43.6021V60.854H42.202V55.9082L39.1943 60.854H37.701V53.3035ZM46.8053 60.854V54.5792H44.6063V53.3035H50.4972V54.5792H48.3089V60.854H46.8053ZM51.4709 60.854V53.3035H56.9678V54.5792H52.9747V56.2561H56.6878V57.5323H52.9747V59.578H57.113V60.8543H51.4709V60.854ZM58.9227 53.3035H64.124V60.854H62.6199V54.5792H60.3899V57.8029C60.3899 58.7257 60.3589 59.3707 60.2985 59.7342C60.2378 60.1 60.0909 60.3866 59.8559 60.5904C59.6209 60.7944 59.2544 60.8963 58.7547 60.8963C58.5786 60.8963 58.2605 60.8786 57.7972 60.8453V59.6625L58.1325 59.6679C58.4455 59.6679 58.658 59.6256 58.7652 59.5396C58.874 59.4536 58.9275 59.2425 58.9275 58.9069L58.9227 57.6099V53.3037V53.3035ZM65.6969 53.3035H67.2005V56.3195H69.2039C70.1479 56.3195 70.8306 56.5445 71.254 56.9943C71.6776 57.4443 71.8883 57.9839 71.8883 58.6133C71.8883 59.1283 71.7605 59.566 71.5028 59.9262C71.2471 60.2884 70.9548 60.5325 70.6248 60.6608C70.2964 60.7888 69.8211 60.854 69.2003 60.854H65.6966V53.3035H65.6969ZM67.2005 59.578H68.6577C69.1294 59.578 69.4581 59.5553 69.6396 59.5097C69.8211 59.4641 69.9851 59.3584 70.1287 59.1949C70.2721 59.0318 70.343 58.8311 70.343 58.5923C70.343 58.2475 70.2201 57.9964 69.9764 57.8364C69.731 57.6764 69.3145 57.5956 68.7232 57.5956H67.2002V59.5783L67.2005 59.578ZM73.121 60.8543V53.3037H74.6246V56.2776H77.5496V53.3037H79.0531V60.8543H77.5496V57.5536H74.6246V60.8543H73.121ZM87.3004 60.8543H85.6804L85.0392 59.1352H82.0608L81.4439 60.8543H79.8535L82.7368 53.3037H84.3253L87.3004 60.8543ZM84.5521 57.8595L83.52 55.0648L82.5177 57.8595H84.5521ZM92.5396 60.8543V57.7013H92.2353C91.7599 57.7013 91.4262 57.7734 91.2311 57.9173C91.0356 58.0596 90.7036 58.4904 90.2318 59.2056L89.1567 60.8543H87.3639L88.2698 59.3815C88.6256 58.7963 88.911 58.3865 89.1217 58.1528C89.3346 57.9173 89.6006 57.7064 89.9185 57.5218C89.2289 57.4113 88.7313 57.1668 88.4252 56.7872C88.1193 56.4076 87.9655 55.9543 87.9655 55.4249C87.9655 54.9647 88.0796 54.5569 88.3077 54.2019C88.5358 53.8466 88.8368 53.6076 89.21 53.4865C89.5832 53.3651 90.1417 53.3037 90.8848 53.3037H94.0429V60.8543H92.5394H92.5396ZM92.5396 54.5795H91.3693C90.7745 54.5795 90.3839 54.5938 90.1973 54.6199C90.0104 54.6481 89.8479 54.7415 89.7132 54.8997C89.5783 55.0576 89.511 55.2634 89.511 55.5181C89.511 55.7835 89.5765 55.9945 89.7063 56.1509C89.8358 56.3073 90.0019 56.4038 90.2024 56.4427C90.4031 56.4793 90.8129 56.499 91.4297 56.499H92.5396V54.5795Z" fill="white"/>
<path d="M97.2586 53.4931H98.7974V56.7097C99.1389 56.6746 99.3708 56.5883 99.4911 56.446C99.6114 56.3052 99.7988 55.9133 100.05 55.2698C100.367 54.4528 100.687 53.9429 101.007 53.7445C101.325 53.5459 101.837 53.4455 102.545 53.4455C102.58 53.4455 102.654 53.444 102.768 53.4407V54.569L102.55 54.5636C102.235 54.5636 102.005 54.6023 101.86 54.6796C101.715 54.7569 101.598 54.8749 101.508 55.0331C101.418 55.1912 101.285 55.5163 101.11 56.0086C101.016 56.2702 100.915 56.4882 100.806 56.6641C100.698 56.8397 100.505 57.005 100.229 57.1599C100.57 57.2546 100.851 57.4499 101.074 57.7415C101.297 58.0333 101.541 58.4446 101.807 58.9773L102.842 61.0442H101.037L100.126 59.1004C100.112 59.0723 100.082 59.0195 100.037 58.9404C100.02 58.9141 99.9562 58.7948 99.8464 58.5854C99.6519 58.2127 99.4924 57.9805 99.3688 57.8876C99.2431 57.7945 99.0539 57.7468 98.7972 57.7435V61.0442H97.2583V53.4937L97.2586 53.4931ZM103.397 57.3143C103.397 56.5443 103.514 55.8977 103.745 55.374C103.917 54.9893 104.154 54.643 104.453 54.3371C104.752 54.0312 105.079 53.8044 105.435 53.6552C105.909 53.4563 106.456 53.3562 107.075 53.3562C108.196 53.3562 109.092 53.7025 109.766 54.3934C110.438 55.0858 110.774 56.0472 110.774 57.2792C110.774 58.5007 110.44 59.457 109.773 60.146C109.106 60.8367 108.213 61.1809 107.096 61.1809C105.966 61.1809 105.065 60.8384 104.399 60.1509C103.732 59.4657 103.397 58.5201 103.397 57.3143H103.397ZM104.979 57.2633C104.979 58.1193 105.179 58.7679 105.576 59.2107C105.974 59.6518 106.48 59.8734 107.092 59.8734C107.706 59.8734 108.209 59.6538 108.603 59.2161C108.996 58.7766 109.192 58.1193 109.192 57.2421C109.192 56.3756 109.001 55.7288 108.617 55.3036C108.235 54.8767 107.728 54.6637 107.092 54.6637C106.459 54.6637 105.948 54.88 105.56 55.3105C105.173 55.7431 104.979 56.3933 104.979 57.2633ZM111.95 61.044V53.4934H114.255L115.617 58.6435L116.964 53.4934H119.274V61.044H117.852L117.847 55.0999L116.348 61.044H114.869L113.378 55.0999L113.373 61.044H111.95H111.95ZM120.834 53.4934H126.874V61.044H125.335V54.7694H122.373V61.044H120.834V53.4934ZM135.289 61.044H133.631L132.975 59.3251H129.927L129.296 61.044H127.668L130.619 53.4934H132.245L135.289 61.044H135.289ZM132.476 58.0491L131.42 55.2547L130.394 58.0491H132.476ZM136.108 61.044V53.4934H137.647V56.4673H140.64V53.4934H142.179V61.044H140.64V57.7433H137.647V61.044H136.108ZM143.795 53.4934H145.227V58.5204L148.306 53.4934H149.834V61.044H148.401V56.0981L145.323 61.044H143.795V53.4934ZM155.946 61.044V57.891H155.635C155.148 57.891 154.807 57.9631 154.607 58.1073C154.407 58.2496 154.067 58.6801 153.584 59.3955L152.484 61.044H150.649L151.577 59.5711C151.941 58.986 152.233 58.5764 152.449 58.3425C152.666 58.1072 152.939 57.8961 153.264 57.7115C152.558 57.6009 152.049 57.3565 151.736 56.9769C151.422 56.5973 151.265 56.144 151.265 55.6149C151.265 55.1544 151.382 54.7464 151.615 54.3916C151.849 54.0366 152.157 53.7977 152.538 53.6762C152.92 53.5548 153.492 53.4934 154.252 53.4934H157.485V61.044H155.945H155.946ZM155.946 54.7694H154.748C154.14 54.7694 153.74 54.7835 153.549 54.8099C153.358 54.8378 153.191 54.9312 153.053 55.0894C152.916 55.2476 152.846 55.4534 152.846 55.7078C152.846 55.9732 152.914 56.1842 153.047 56.3406C153.179 56.4972 153.349 56.594 153.554 56.6324C153.759 56.6692 154.178 56.6887 154.81 56.6887H155.946V54.7694H155.946Z" fill="white"/>
</svg>
