<svg width="327" height="27" viewBox="0 0 327 27" fill="none" xmlns="http://www.w3.org/2000/svg">
<path d="M3.79365 16.7996C5.60392 16.7996 7.07143 15.3021 7.07143 13.4549C7.07143 11.6076 5.60392 10.1101 3.79365 10.1101C1.98338 10.1101 0.515869 11.6076 0.515869 13.4549C0.515869 15.3021 1.98338 16.7996 3.79365 16.7996Z" fill="#9B192E"/>
<path d="M323.722 16.7996C325.532 16.7996 327 15.3021 327 13.4549C327 11.6076 325.532 10.1101 323.722 10.1101C321.912 10.1101 320.444 11.6076 320.444 13.4549C320.444 15.3021 321.912 16.7996 323.722 16.7996Z" fill="#9B192E"/>
<path fill-rule="evenodd" clip-rule="evenodd" d="M184.009 4.37748H191.384V12.32H175.34C175.811 7.87112 179.529 4.37748 184.009 4.37748H184.009ZM208.534 6.46855C211.9 6.46855 214.683 9.01298 215.139 12.3202H201.929C202.384 9.0132 205.167 6.46855 208.534 6.46855H208.534ZM215.139 14.2314C214.683 17.5383 211.9 20.0829 208.534 20.0829C205.167 20.0829 202.384 17.5385 201.929 14.2314H215.139H215.139ZM191.384 14.2314V22.1738H184.009C179.53 22.1738 175.811 18.6804 175.34 14.2314H191.384H191.384ZM250.851 12.32V14.2314H245.842C245.358 20.984 239.793 26.3557 233.058 26.3557H184.009C177.274 26.3557 171.709 20.984 171.226 14.2314H166.216V12.32H171.226C171.709 5.56745 177.274 0.195557 184.009 0.195557H233.058C239.793 0.195557 245.358 5.56745 245.842 12.32H250.851ZM241.727 14.2314H225.683V22.1738H233.058C237.538 22.1738 241.256 18.6804 241.727 14.2314H241.727ZM223.81 14.2314H217.204C216.737 18.6962 213.033 22.1738 208.534 22.1738H223.81V14.2314ZM199.864 14.2314H193.258V22.1738H208.534C204.035 22.1738 200.331 18.696 199.864 14.2314ZM193.258 12.32H199.864C200.331 7.85529 204.035 4.37748 208.534 4.37748H193.258V12.32ZM217.204 12.32H223.81V4.37748H208.534C213.033 4.37748 216.737 7.85551 217.204 12.32ZM225.684 12.32H241.728C241.257 7.87112 237.538 4.37748 233.059 4.37748H225.684V12.32H225.684Z" fill="#9B192E"/>
<path d="M26.3694 26.58V1.72727H36.2025V4.40541H29.1339V26.58H26.3694ZM53.9096 20.7298V8.48786C53.9096 7.60107 53.9854 6.74419 54.143 5.91699C54.2947 5.08373 54.5746 4.33975 54.9827 3.68506C55.3969 3.02452 55.9626 2.50072 56.6858 2.10803C57.4089 1.70928 58.348 1.51294 59.5086 1.51294C60.7158 1.51294 61.684 1.68544 62.4188 2.03652C63.1536 2.38174 63.7194 2.86978 64.1159 3.48287C64.5183 4.1018 64.7808 4.82779 64.9091 5.66105C65.0433 6.50017 65.1075 7.41665 65.1075 8.41635V19.9084C65.1075 22.1165 64.6817 23.8245 63.8243 25.0266C62.9729 26.2289 61.5207 26.8298 59.4736 26.8298C57.473 26.8298 56.0442 26.2705 55.1928 25.1577C54.3354 24.0388 53.9096 22.5628 53.9096 20.7298ZM56.6741 20.7536C56.6741 21.1166 56.7091 21.4976 56.779 21.9022C56.8434 22.3129 56.9833 22.6937 57.1931 23.0449C57.4032 23.4019 57.6948 23.6936 58.0564 23.9198C58.4238 24.1458 58.8962 24.259 59.4736 24.259C60.0568 24.259 60.535 24.14 60.9082 23.9018C61.2815 23.6639 61.5731 23.3603 61.7772 22.9853C61.9873 22.6163 62.1272 22.1939 62.2147 21.7236C62.3022 21.2536 62.343 20.7656 62.343 20.2656V7.94045C62.343 7.50593 62.3139 7.06557 62.2555 6.61329C62.203 6.16079 62.0805 5.75034 61.8881 5.38128C61.7014 5.01828 61.4158 4.70881 61.0307 4.45873C60.64 4.20886 60.1326 4.08381 59.5086 4.08381C58.8146 4.08381 58.2779 4.25653 57.9048 4.59569C57.5257 4.94091 57.2456 5.35159 57.0591 5.82771C56.8724 6.30383 56.7616 6.80963 56.7265 7.34513C56.6917 7.88085 56.6741 8.32728 56.6741 8.69027V20.7536ZM83.8178 26.58V1.72727H88.7751C90.0174 1.72727 91.0322 1.89392 91.8254 2.22138C92.6186 2.55468 93.2485 3.0308 93.7151 3.66144C94.1817 4.28644 94.5024 5.06011 94.6831 5.97659C94.8581 6.89307 94.9456 7.93459 94.9456 9.10701C94.9456 10.1605 94.864 11.1424 94.7007 12.0469C94.5315 12.9576 94.2165 13.749 93.7499 14.4334C93.2833 15.118 92.636 15.6535 91.8137 16.0403C90.9914 16.4272 89.9123 16.6177 88.5769 16.6177H86.5823V26.5802H83.8178V26.58ZM86.5823 13.9393H88.4777C89.3175 13.9393 89.9941 13.8084 90.4898 13.5466C90.9914 13.2846 91.3762 12.9335 91.6447 12.5051C91.9129 12.0706 92.0819 11.5706 92.1461 10.9994C92.2162 10.4281 92.2512 9.82087 92.2512 9.17831C92.2512 8.51755 92.2102 7.88085 92.1344 7.27969C92.0528 6.67874 91.8838 6.16079 91.627 5.71458C91.3705 5.27422 90.9971 4.92293 90.5074 4.67306C90.0175 4.42319 89.3642 4.29814 88.5476 4.29814H86.5823V13.9393ZM112.746 26.58V1.72727H115.405V19.2897L115.54 19.3255L121.634 1.72727H124.259V26.58H121.599V9.12457H121.483L115.336 26.58H112.746ZM141.68 21.2178L144.34 20.6763C144.34 22.0392 144.573 22.9795 145.045 23.4912C145.512 24.003 146.206 24.259 147.122 24.259C147.501 24.259 147.856 24.1875 148.195 24.0388C148.533 23.896 148.825 23.64 149.07 23.271C149.315 22.9021 149.519 22.408 149.67 21.7832C149.828 21.1582 149.904 20.3727 149.904 19.4146C149.904 18.8195 149.863 18.248 149.781 17.7006C149.705 17.1529 149.559 16.6829 149.344 16.2841C149.134 15.8914 148.854 15.5701 148.515 15.3319C148.171 15.0939 147.74 14.9747 147.227 14.9747H145.646V12.5109H147.291C147.787 12.5109 148.2 12.3978 148.545 12.1718C148.889 11.9455 149.169 11.6302 149.379 11.2315C149.595 10.8269 149.746 10.3507 149.834 9.79725C149.927 9.24376 149.974 8.66037 149.974 8.0475C149.974 7.25585 149.892 6.60137 149.74 6.0895C149.583 5.57762 149.373 5.17301 149.105 4.87547C148.836 4.58377 148.527 4.37551 148.177 4.25653C147.827 4.14341 147.454 4.08381 147.052 4.08381C146.066 4.08381 145.372 4.4351 144.958 5.13726C144.544 5.84548 144.34 6.69651 144.34 7.69643L141.68 7.08334C141.75 5.29784 142.281 3.92323 143.284 2.95907C144.287 1.99491 145.553 1.51294 147.087 1.51294C147.956 1.51294 148.731 1.61414 149.425 1.81634C150.114 2.01875 150.708 2.36397 151.198 2.85201C151.688 3.34005 152.067 3.99453 152.336 4.81587C152.604 5.63115 152.738 6.67267 152.738 7.94045C152.738 8.36889 152.709 8.86278 152.651 9.42233C152.598 9.98167 152.487 10.5352 152.318 11.0826C152.155 11.6302 151.939 12.1302 151.671 12.5824C151.402 13.0347 151.047 13.3858 150.604 13.6298V13.731C151.093 14.0227 151.484 14.3916 151.776 14.8261C152.061 15.2606 152.277 15.7367 152.423 16.2484C152.563 16.7661 152.651 17.3018 152.686 17.8612C152.72 18.4207 152.738 18.9623 152.738 19.4859C152.738 21.8665 152.295 23.6816 151.402 24.9434C150.51 26.199 149.075 26.8298 147.087 26.8298C146.27 26.8298 145.524 26.7169 144.853 26.4907C144.182 26.2647 143.605 25.9253 143.115 25.4671C142.625 25.0088 142.252 24.4256 141.995 23.7293C141.739 23.027 141.633 22.1878 141.68 21.2178Z" fill="#9B192E"/>
<path d="M263.816 26.58V1.72729H266.58V12.654H272.249V1.72729H275.014V26.58H272.249V15.1178H266.58V26.58H263.816ZM292.266 4.29838V1.72729H303.324V4.29838H299.194V26.58H296.43V4.29838H292.266Z" fill="#9B192E"/>
</svg>
