<svg width="199" height="59" viewBox="0 0 199 59" fill="none" xmlns="http://www.w3.org/2000/svg">
<path fill-rule="evenodd" clip-rule="evenodd" d="M19.1152 12.2922C19.3945 12.2922 19.6717 12.2993 19.9478 12.3119C20.9397 10.5963 21.5744 9.10405 21.5879 8.20527C21.6222 5.93855 20.7982 4.25584 20.7982 4.25584L22.6181 0.890137C22.6181 0.890137 23.8887 6.28196 23.7174 8.96084C23.5458 11.6394 22.9621 16.241 16.8831 23.419C10.8045 30.5966 8.22842 33.9277 7.95403 36.2285C7.67935 38.5293 7.74781 41.2422 7.74781 41.2422L5.85916 44.4361C5.85916 44.4361 5.77496 43.8272 5.68588 42.8631C2.70168 39.6165 0.879486 35.285 0.879486 30.5276C0.879486 20.456 9.04357 12.2916 19.1152 12.2916V12.2922ZM29.6013 15.6089C34.2882 18.9082 37.3512 24.3599 37.3512 30.5282C37.3512 40.5998 29.1868 48.7639 19.1152 48.7639C17.859 48.7639 16.6325 48.637 15.4479 48.395L15.5115 48.281C14.9647 49.2554 14.6657 50.0536 14.5818 50.7562C14.3071 53.057 14.3758 55.77 14.3758 55.77L12.4872 58.9636C12.4872 58.9636 11.3879 51.0309 12.9334 47.0471C14.4789 43.0633 16.7797 38.8048 20.4889 34.9241C24.198 31.0437 28.1812 24.9994 28.2159 22.7324C28.2505 20.466 27.4265 18.783 27.4265 18.783L29.4183 14.4904C29.4183 14.4904 29.4936 14.9224 29.6016 15.6092L29.6013 15.6089ZM18.689 43.7765C18.8305 43.7808 18.9726 43.7842 19.1149 43.7842C26.4363 43.7842 32.3709 37.849 32.3709 30.5282C32.3709 27.9392 31.6277 25.5244 30.3451 23.4837L30.3448 23.488C30.1738 26.1669 29.5895 30.7688 23.5106 37.9461C21.5541 40.257 19.9598 42.1685 18.6887 43.7771L18.689 43.7765ZM24.1123 11.5194L25.9323 8.15372C25.9323 8.15372 27.2028 13.5455 27.0312 16.2244C26.8602 18.903 26.276 23.5046 20.197 30.6826C14.1183 37.8602 11.5426 41.1913 11.2679 43.4921C10.9932 45.7932 11.0617 48.5064 11.0617 48.5064L9.17303 51.7C9.17303 51.7 8.07404 43.7667 9.61956 39.7835C11.1651 35.7997 13.4659 31.5412 17.175 27.6606C20.8841 23.7799 24.8673 17.7359 24.902 15.4689C24.9367 13.2024 24.1126 11.5194 24.1126 11.5194H24.1123ZM16.3163 17.5689C10.339 18.8535 5.85916 24.1668 5.85916 30.5279C5.85916 31.4063 5.94509 32.2647 6.10806 33.0951C6.1685 32.8957 6.23437 32.7035 6.30569 32.5194C7.85121 28.5358 10.152 24.2771 13.8611 20.3967C14.6811 19.5383 15.5149 18.5742 16.3163 17.5686V17.5689Z" fill="#2B2A29"/>
<path d="M55.4148 29.1993C55.9925 29.3961 56.4216 29.7154 56.7057 30.1577C56.9867 30.603 57.1282 31.6453 57.1282 33.2848C57.1282 34.5012 56.9898 35.4469 56.712 36.118C56.4347 36.7891 55.957 37.2995 55.2759 37.6478C54.5951 37.9995 53.7238 38.1737 52.6589 38.1737C51.4516 38.1737 50.4996 37.9706 49.8124 37.5639C49.1219 37.1569 48.6668 36.6568 48.4505 36.0665C48.2343 35.479 48.1246 34.4528 48.1246 32.9938V31.7839H51.9391V34.2749C51.9391 34.94 51.9778 35.3628 52.0588 35.54C52.1364 35.7208 52.3137 35.811 52.5847 35.811C52.8817 35.811 53.0785 35.6984 53.1721 35.469C53.2658 35.2433 53.3139 34.6493 53.3139 33.6909V32.6292C53.3139 32.0417 53.2495 31.6127 53.1171 31.3414C52.9851 31.0705 52.788 30.8932 52.5297 30.809C52.2716 30.7219 51.7715 30.6732 51.0291 30.6609V28.434C51.9362 28.434 52.4945 28.3985 52.7107 28.3306C52.9238 28.2596 53.0788 28.1112 53.1721 27.8755C53.2658 27.6432 53.3139 27.2783 53.3139 26.7813V25.9327C53.3139 25.3971 53.2589 25.0451 53.1495 24.8744C53.0369 24.7034 52.8657 24.6195 52.6334 24.6195C52.3653 24.6195 52.1843 24.7094 52.0878 24.8873C51.9875 25.0677 51.9394 25.4486 51.9394 26.0361V27.2915H48.1249V25.9877C48.1249 24.5261 48.4605 23.5414 49.1285 23.0284C49.7967 22.5151 50.8584 22.2571 52.3137 22.2571C54.1336 22.2571 55.3695 22.6122 56.0183 23.3251C56.6673 24.0383 56.993 25.0293 56.993 26.2942C56.993 27.1528 56.8767 27.7721 56.6444 28.153C56.4087 28.5342 55.9988 28.8825 55.4148 29.1987V29.1993ZM61.9179 30.1771H58.3354V29.3348C58.3354 28.3635 58.4485 27.6146 58.6711 27.0852C58.8939 26.5594 59.3459 26.0945 60.0201 25.691C60.6949 25.2877 61.5691 25.0843 62.6503 25.0843C63.9409 25.0843 64.9156 25.3135 65.5709 25.7714C66.2257 26.2263 66.6198 26.7879 66.7518 27.453C66.8844 28.1175 66.9517 29.4892 66.9517 31.5643V37.8635H63.234V36.7436C63.0017 37.1953 62.6984 37.5312 62.3304 37.7569C61.9623 37.9829 61.5235 38.0958 61.0106 38.0958C60.3423 38.0958 59.7294 37.909 59.1712 37.5344C58.6127 37.1566 58.3351 36.3369 58.3351 35.0686V34.0361C58.3351 33.0972 58.4835 32.4579 58.7805 32.1159C59.0775 31.7736 59.813 31.3769 60.9879 30.9247C62.2433 30.4312 62.9147 30.1018 63.0049 29.9311C63.092 29.7601 63.1369 29.4147 63.1369 28.8885C63.1369 28.2332 63.0885 27.8076 62.9886 27.6074C62.8918 27.4106 62.7274 27.3104 62.4982 27.3104C62.2367 27.3104 62.0755 27.3946 62.0142 27.5621C61.9494 27.7271 61.9174 28.1625 61.9174 28.8628V30.1763L61.9179 30.1771ZM63.1375 31.8968C62.5211 32.3459 62.1631 32.72 62.066 33.0233C61.9658 33.3269 61.9179 33.7591 61.9179 34.3271C61.9179 34.9792 61.9597 35.3954 62.0468 35.5856C62.1307 35.7758 62.3017 35.8694 62.5566 35.8694C62.7987 35.8694 62.9533 35.7952 63.0278 35.6472C63.102 35.4988 63.1372 35.1113 63.1372 34.4786V31.8968H63.1375ZM77.1142 34.5562C77.1142 35.8342 76.8369 36.7055 76.2784 37.17C75.7202 37.6315 74.5066 37.8638 72.6414 37.8638H68.2653V25.3166H72.7769C74.3227 25.3166 75.3845 25.5715 75.9685 26.0813C76.5528 26.5946 76.8432 27.4659 76.8432 28.7052C76.8432 30.1219 76.1043 30.9316 74.6295 31.1255C75.4005 31.2515 76.0074 31.5514 76.4494 32.0291C76.8913 32.5034 77.1139 33.1006 77.1139 33.8201V34.5559L77.1142 34.5562ZM72.0606 29.9832C72.6414 29.9832 72.9963 29.9122 73.1255 29.767C73.2544 29.6221 73.3191 29.3348 73.3191 28.9052C73.3191 28.5468 73.2481 28.2951 73.1029 28.1567C72.9579 28.0181 72.6091 27.9499 72.0606 27.9499V29.9835V29.9832ZM73.3191 33.9719V33.546C73.3191 33.0041 73.2481 32.665 73.1029 32.5295C72.9579 32.3943 72.6091 32.3264 72.0606 32.3264V35.2307C72.5704 35.2307 72.9093 35.1565 73.0739 35.0082C73.2383 34.8598 73.3191 34.5147 73.3191 33.9722V33.9719ZM86.857 29.722V32.797C86.857 33.9266 86.7988 34.753 86.686 35.2823C86.5734 35.8081 86.3311 36.2988 85.9602 36.7573C85.5887 37.2153 85.1113 37.551 84.5273 37.7704C83.943 37.9866 83.275 38.0963 82.5195 38.0963C81.674 38.0963 80.9579 38.0032 80.3733 37.8188C79.7862 37.6318 79.3313 37.3511 79.0083 36.9764C78.6823 36.5992 78.45 36.1441 78.3114 35.6114C78.1728 35.0789 78.1049 34.2786 78.1049 33.2137V29.9961C78.1049 28.8278 78.2309 27.9179 78.4827 27.2594C78.7344 26.6041 79.1893 26.0785 79.8446 25.6812C80.4999 25.2845 81.3386 25.0843 82.3588 25.0843C83.2137 25.0843 83.9498 25.2132 84.5662 25.4681C85.1794 25.723 85.6537 26.0556 85.9894 26.4651C86.322 26.8747 86.5508 27.2978 86.6734 27.7334C86.7963 28.1691 86.8573 28.8307 86.8573 29.7217L86.857 29.722ZM83.0425 28.776C83.0425 28.1341 83.0069 27.7274 82.9391 27.5627C82.8677 27.3952 82.7197 27.3109 82.4905 27.3109C82.2617 27.3109 82.1096 27.3952 82.0326 27.5627C81.9581 27.7277 81.9194 28.1341 81.9194 28.776V34.4399C81.9194 35.0339 81.9581 35.4209 82.0326 35.5985C82.1099 35.7792 82.2582 35.8694 82.4808 35.8694C82.7099 35.8694 82.8586 35.7892 82.9328 35.6242C83.0069 35.4598 83.0422 35.1081 83.0422 34.5656V28.7763L83.0425 28.776ZM99.2332 40.2843H96.6774V37.8638H90.2488V40.2843H87.693V34.8629H88.5062C88.9934 34.1142 89.3907 32.9491 89.7037 31.3709C90.0168 29.7928 90.1714 27.9276 90.1714 25.7815V25.3169H98.42V34.8435H99.2334V40.2843H99.2332ZM94.6247 34.8435V28.1436H93.6371V28.2762C93.6371 30.6062 93.2562 32.7973 92.4946 34.8435H94.6247ZM112.406 33.7041C112.406 35.182 112.045 36.2632 111.319 36.9509C110.596 37.6381 109.483 37.98 107.975 37.98C106.378 37.98 105.226 37.6444 104.529 36.9764C103.828 36.3082 103.48 35.1663 103.48 33.546V32.3459H107.295V34.692C107.295 35.3083 107.514 35.6179 107.949 35.6179C108.262 35.6179 108.45 35.4988 108.508 35.2596C108.563 35.0176 108.592 34.4333 108.592 33.5073V30.9711H106.384V28.7442H108.592V26.13C108.592 25.6365 108.56 25.2943 108.498 25.1038C108.433 24.9105 108.266 24.8134 107.995 24.8134C107.527 24.8134 107.295 25.117 107.295 25.7236V27.4854H103.48V26.1882C103.48 24.7589 103.806 23.7777 104.461 23.2449C105.116 22.7156 106.255 22.4513 107.872 22.4513C109.366 22.4513 110.493 22.7738 111.257 23.4159C112.022 24.0578 112.406 25.0004 112.406 26.2429V33.7041H112.406ZM122.821 37.8638H119.025V33.2364H117.65V37.8638H113.855V25.3166H117.65V29.828H119.025V25.3166H122.821V37.8638ZM132.834 31.8031H127.878V34.5238C127.878 35.0921 127.92 35.4596 128 35.6242C128.084 35.7892 128.242 35.8694 128.478 35.8694C128.772 35.8694 128.968 35.76 129.065 35.5435C129.166 35.3244 129.214 34.9016 129.214 34.2752V32.6166H132.834V33.5457C132.834 34.3236 132.786 34.9208 132.689 35.337C132.589 35.7528 132.36 36.1985 132.002 36.6728C131.643 37.1471 131.185 37.5023 130.634 37.7412C130.082 37.9766 129.391 38.096 128.558 38.096C127.752 38.096 127.039 37.9798 126.419 37.7443C125.802 37.512 125.322 37.1924 124.976 36.786C124.631 36.3795 124.396 35.9307 124.263 35.4404C124.131 34.9529 124.063 34.2429 124.063 33.3071V29.6444C124.063 28.5468 124.211 27.6819 124.509 27.0463C124.805 26.4142 125.29 25.9267 125.964 25.5907C126.642 25.2519 127.416 25.0843 128.294 25.0843C129.365 25.0843 130.249 25.2874 130.947 25.6944C131.643 26.1008 132.134 26.6396 132.415 27.3109C132.696 27.9792 132.834 28.9246 132.834 30.1416V31.8034L132.834 31.8031ZM129.02 29.7701V28.8539C129.02 28.2023 128.984 27.7858 128.913 27.5954C128.842 27.4052 128.697 27.3112 128.478 27.3112C128.207 27.3112 128.039 27.392 127.974 27.5535C127.91 27.7145 127.877 28.1473 127.877 28.8539V29.7701H129.02ZM137.959 25.3169L137.891 26.4271C138.233 25.9751 138.607 25.6397 139.018 25.4169C139.428 25.1943 139.876 25.0846 140.36 25.0846C140.954 25.0846 141.467 25.2424 141.9 25.5621C142.329 25.8817 142.6 26.2498 142.706 26.6656C142.812 27.0824 142.867 27.789 142.867 28.786V34.0753C142.867 35.2178 142.799 36.0278 142.664 36.5119C142.529 36.9928 142.251 37.38 141.831 37.6673C141.412 37.9546 140.906 38.0963 140.312 38.0963C139.84 38.0963 139.401 37.9869 138.998 37.7641C138.595 37.5412 138.227 37.2122 137.891 36.7734V39.6453H134.077V25.3169H137.959H137.959ZM139.053 28.9667C139.053 28.1891 139.024 27.7211 138.966 27.5564C138.911 27.3914 138.753 27.3109 138.491 27.3109C138.237 27.3109 138.075 27.4049 138.001 27.5951C137.927 27.7821 137.891 28.2407 137.891 28.9667V34.1692C137.891 34.9242 137.93 35.3986 138.004 35.5859C138.082 35.7761 138.246 35.8697 138.501 35.8697C138.749 35.8697 138.902 35.7826 138.963 35.6085C139.024 35.4375 139.053 35.0147 139.053 34.3468V28.967V28.9667ZM144.126 37.8638V25.3166H150.129V27.4851H147.941V37.8638H144.126H144.126ZM159.446 29.722V32.797C159.446 33.9266 159.387 34.753 159.275 35.2823C159.161 35.8081 158.919 36.2988 158.548 36.7573C158.177 37.2153 157.7 37.551 157.116 37.7704C156.531 37.9866 155.863 38.0963 155.108 38.0963C154.263 38.0963 153.546 38.0032 152.962 37.8188C152.375 37.6318 151.92 37.3511 151.597 36.9764C151.271 36.5992 151.039 36.1441 150.9 35.6114C150.761 35.0789 150.693 34.2786 150.693 33.2137V29.9961C150.693 28.8278 150.819 27.9179 151.071 27.2594C151.323 26.6041 151.778 26.0785 152.433 25.6812C153.088 25.2845 153.927 25.0843 154.947 25.0843C155.802 25.0843 156.538 25.2132 157.154 25.4681C157.768 25.723 158.242 26.0556 158.578 26.4651C158.91 26.8747 159.139 27.2978 159.262 27.7334C159.385 28.1691 159.446 28.8307 159.446 29.7217L159.446 29.722ZM155.631 28.776C155.631 28.1341 155.595 27.7274 155.527 27.5627C155.456 27.3952 155.308 27.3109 155.079 27.3109C154.85 27.3109 154.698 27.3952 154.621 27.5627C154.546 27.7277 154.508 28.1341 154.508 28.776V34.4399C154.508 35.0339 154.546 35.4209 154.621 35.5985C154.698 35.7792 154.847 35.8694 155.069 35.8694C155.298 35.8694 155.447 35.7892 155.521 35.6242C155.595 35.4598 155.63 35.1081 155.63 34.5656V28.7763L155.631 28.776ZM173.099 22.5478V37.8638H169.614L169.604 27.524L168.22 37.8638H165.78L164.318 27.7563L164.309 37.8638H160.823V22.5478H165.971C166.116 23.4738 166.274 24.5648 166.445 25.8107L167.01 29.6991L167.917 22.5478H173.1H173.099ZM177.995 30.1769H174.413V29.3345C174.413 28.3632 174.526 27.6143 174.749 27.085C174.971 26.5591 175.423 26.0942 176.097 25.6907C176.772 25.2874 177.647 25.084 178.728 25.084C180.018 25.084 180.993 25.3132 181.648 25.7712C182.303 26.226 182.697 26.7877 182.829 27.4527C182.962 28.1172 183.029 29.4889 183.029 31.564V37.8632H179.312V36.7433C179.079 37.195 178.776 37.5309 178.408 37.7566C178.04 37.9826 177.601 38.0955 177.088 38.0955C176.42 38.0955 175.807 37.9087 175.248 37.5341C174.69 37.1563 174.412 36.3366 174.412 35.0683V34.0358C174.412 33.0969 174.561 32.4576 174.858 32.1156C175.155 31.7733 175.891 31.3767 177.065 30.9244C178.321 30.4309 178.992 30.1015 179.082 29.9308C179.169 29.7598 179.215 29.4144 179.215 28.8882C179.215 28.2329 179.166 27.8073 179.066 27.6071C178.969 27.4103 178.805 27.3101 178.576 27.3101C178.315 27.3101 178.153 27.3943 178.092 27.5618C178.027 27.7268 177.995 28.1622 177.995 28.8625V30.176L177.995 30.1769ZM179.215 31.8965C178.598 32.3456 178.24 32.7197 178.144 33.023C178.043 33.3266 177.995 33.7588 177.995 34.3268C177.995 34.979 178.037 35.3951 178.124 35.5853C178.208 35.7755 178.379 35.8691 178.634 35.8691C178.876 35.8691 179.031 35.795 179.105 35.6469C179.18 35.4985 179.215 35.111 179.215 34.4783V31.8965ZM193.327 35.2304H194.683V25.3166H198.497V37.8638H184.343V25.3166H188.158V35.2304H189.513V25.3166H193.328V35.2304H193.327Z" fill="#2B2A29"/>
</svg>
