<svg width="76" height="78" viewBox="0 0 76 78" fill="none" xmlns="http://www.w3.org/2000/svg">
<g clip-path="url(#clip0_76_2145)">
<path fill-rule="evenodd" clip-rule="evenodd" d="M44.3284 47.9287C45.8205 46.4529 46.8649 44.3873 46.8649 42.1734V41.8783H44.9252C44.4777 44.3871 42.2399 46.1577 39.4048 46.1577C36.2719 46.1577 33.8845 43.9444 33.8845 41.1404C33.8845 38.7797 35.5258 36.8611 37.9127 36.2708H41.0461V26.9741H35.0782V33.6143C30.6024 34.3526 27.3197 37.8941 27.3197 42.0259C27.3197 44.3873 28.5134 46.6005 30.3039 48.0764L0.464233 65.7847V77.5898H75.2121V65.7847L44.3284 47.9289V47.9287ZM6.73052 74.3433C5.23839 74.3433 3.89554 73.1627 3.89554 71.5398C3.89554 69.9165 5.08924 68.7358 6.73052 68.7358C8.3718 68.7358 9.56511 69.9165 9.56511 71.5398C9.56511 73.1627 8.22265 74.3433 6.73052 74.3433ZM15.6821 74.3433C14.1906 74.3433 12.8477 73.1627 12.8477 71.5398C12.8477 69.9165 14.0414 68.7358 15.6821 68.7358C17.3234 68.7358 18.5171 69.9165 18.5171 71.5398C18.5171 73.1627 17.1742 74.3433 15.6821 74.3433ZM24.4852 74.3433C22.9931 74.3433 21.6502 73.1627 21.6502 71.5398C21.6502 69.9165 22.844 68.7358 24.4852 68.7358C26.126 68.7358 27.3197 69.9165 27.3197 71.5398C27.3197 73.1627 25.9768 74.3433 24.4852 74.3433ZM33.4368 74.3433C31.9447 74.3433 30.6022 73.1627 30.6022 71.5398C30.6022 69.9165 31.7954 68.7358 33.4368 68.7358C34.929 68.7358 36.2718 69.9165 36.2718 71.5398C36.2718 73.1627 34.929 74.3433 33.4368 74.3433ZM42.3884 74.3433C40.8968 74.3433 39.5538 73.1627 39.5538 71.5398C39.5538 69.9165 40.7475 68.7358 42.3884 68.7358C44.0297 68.7358 45.2234 69.9165 45.2234 71.5398C45.2234 73.1627 43.8805 74.3433 42.3884 74.3433ZM51.1914 74.3433C49.6993 74.3433 48.3564 73.1627 48.3564 71.5398C48.3564 69.9165 49.5501 68.7358 51.1914 68.7358C52.6835 68.7358 54.026 69.9165 54.026 71.5398C54.026 73.1627 52.6835 74.3433 51.1914 74.3433ZM60.143 74.3433C58.6515 74.3433 57.3085 73.1627 57.3085 71.5398C57.3085 69.9165 58.5016 68.7358 60.143 68.7358C61.6351 68.7358 62.978 69.9165 62.978 71.5398C62.978 73.1627 61.6351 74.3433 60.143 74.3433ZM69.0952 74.3433C67.6031 74.3433 66.2603 73.1627 66.2603 71.5398C66.2603 69.9165 67.454 68.7358 69.0952 68.7358C70.736 68.7358 71.9297 69.9165 71.9297 71.5398C71.9297 73.1627 70.5868 74.3433 69.0952 74.3433ZM3.89527 65.7847L31.6461 49.4047C33.1383 50.2902 34.7795 50.8805 37.1664 50.8805C39.4046 50.8805 41.4935 50.4372 43.2837 48.962L72.6758 65.7848H3.89541L3.89527 65.7847Z" fill="#E31E24"/>
<path d="M12.5493 8.52765C11.654 9.41315 11.2065 10.5938 11.2065 12.0691C11.2065 13.3973 11.654 14.578 12.5493 15.4635C13.4446 16.349 14.489 16.7917 15.8314 16.7917C17.4726 16.7917 18.6663 16.2013 19.5616 15.0207L24.1868 20.4807C21.9486 22.694 19.114 23.727 15.3836 23.727C11.9523 23.727 9.11775 22.694 6.73048 20.4807C4.34307 18.267 3.15002 15.4635 3.15002 12.069C3.15002 8.52752 4.34307 5.72402 6.58133 3.65786C8.96821 1.44456 11.8033 0.411547 15.2345 0.411547C16.8758 0.411547 18.5172 0.706713 20.1585 1.29705C21.6501 1.88686 22.993 2.62484 24.0375 3.51034L19.4119 8.97034C18.6663 7.78967 17.4726 7.19933 15.8314 7.19933C14.489 7.19933 13.4446 7.64202 12.5493 8.52752V8.52765ZM37.7635 16.7918C36.5705 16.7918 35.3767 16.3491 34.4815 15.4636C33.5862 14.5781 33.1386 13.3974 33.1386 12.0693C33.1386 10.5939 33.5862 9.41328 34.4815 8.52778C35.3767 7.64228 36.4206 7.1996 37.7635 7.1996C39.4048 7.1996 40.5985 7.78993 41.4938 8.82295L46.1189 3.36295C45.0745 2.47745 43.7315 1.7396 42.2394 1.14966C40.7478 0.559327 39.1063 0.26416 37.3158 0.26416C33.8845 0.26416 30.9008 1.29718 28.6626 3.51047C26.2752 5.72416 25.2313 8.52765 25.2313 11.9221C25.2313 15.3161 26.4244 18.1201 28.8118 20.3333C31.1992 22.547 34.0338 23.5796 37.4649 23.5796C41.0461 23.5796 44.0298 22.547 46.268 20.3333L41.6429 14.8733C40.7476 16.2015 39.4048 16.7918 37.7634 16.7918H37.7635ZM62.0829 11.0365L70.5869 0.854362H61.7845L55.8166 8.97034V0.854362H48.5056V22.9891H55.8166V14.1353L61.7845 22.9891H70.8854L62.0829 11.0365Z" fill="#E31E24"/>
</g>
<defs>
<clipPath id="clip0_76_2145">
<rect width="74.7479" height="77.3254" fill="white" transform="translate(0.464233 0.26416)"/>
</clipPath>
</defs>
</svg>
