<svg width="218" height="54" viewBox="0 0 218 54" fill="none" xmlns="http://www.w3.org/2000/svg">
<path d="M27.3245 53.2732C41.9194 53.2732 53.7508 41.4418 53.7508 26.8469C53.7508 12.2521 41.9194 0.420654 27.3245 0.420654C12.7297 0.420654 0.898254 12.2521 0.898254 26.8469C0.898254 41.4418 12.7297 53.2732 27.3245 53.2732Z" fill="#EF9242"/>
<path fill-rule="evenodd" clip-rule="evenodd" d="M9.5219 10.981H12.2134H17.7109H21.4644H26.9619H30.7154H36.2129L35.1869 16.4782L33.8359 23.7198H37.0468H40.8003H46.2978L46.0503 25.0467H33.5884L33.3406 26.3737H45.8025L45.555 27.7001H33.0931L32.8453 29.0271H45.3072L45.2714 29.2175L45.0594 30.3537H39.5622L39.7742 29.2175H36.0206L35.8087 30.3537H32.5975L32.4985 30.8856H27.0013L27.3123 29.2175H26.7696L26.5577 30.3537H23.3468L23.2477 30.8856H17.7503L20.4385 16.4784H16.6849L13.9968 30.8856H8.4993L11.1875 16.4784H8.49573L9.52165 10.9812L9.5219 10.981ZM27.3486 29.0268L27.5962 27.6999H23.8426L23.5951 29.0268H27.3486ZM27.8437 26.3734L28.0912 25.0465H24.3377L24.0901 26.3734H27.8437ZM28.3385 23.7198L29.6895 16.4782H25.9359L24.5849 23.7198H27.7958H28.3385ZM44.8127 31.6804L44.5649 33.0074H39.0677L39.3152 31.6804H44.8127ZM44.3176 34.3338L44.0698 35.6608H38.5726L38.8201 34.3338H44.3176ZM45.9832 36.9874L45.7357 38.3144H38.0776L38.3251 36.9874H45.9832ZM45.4882 39.6408L45.2406 40.9678H37.5825L37.8301 39.6408H45.4882ZM44.9934 42.2945L44.7451 43.6245H37.087L37.335 42.2945H44.9936H44.9934ZM35.5617 31.6804L35.3141 33.0074H29.8167L30.0642 31.6804H35.5617ZM35.0666 34.3338L34.8191 35.6608H29.3216L29.5692 34.3338H35.0666ZM34.5716 36.9874L34.3241 38.3144H28.8266L29.0741 36.9874H34.5716ZM34.0765 39.6408L33.829 40.9678H28.3316L28.5791 39.6408H34.0765ZM33.5815 42.2945L33.3335 43.6245H27.836L28.0843 42.2945H33.5815ZM26.3109 31.6804L26.0634 33.0074H20.566L20.8135 31.6804H26.3109ZM25.8159 34.3338L25.5684 35.6608H20.0709L20.3184 34.3338H25.8159ZM25.3208 36.9874L25.0733 38.3144H19.5759L19.8234 36.9874H25.3208ZM24.8258 39.6408L24.5783 40.9678H19.0808L19.3284 39.6408H24.8258ZM24.331 42.2945L24.0827 43.6245H18.5853L18.8336 42.2945H24.331Z" fill="#24272A" stroke="#2B2A29" stroke-width="0.755768" stroke-miterlimit="22.9256"/>
<path d="M78.4378 21.2828L75.7394 35.7679H70.5481L73.2409 21.2828H71.98H70.6147L67.9165 35.7679H62.7254L65.4108 21.2828H61.5795L62.1733 17.9258H66.0328H72.5739H86.8751L83.5675 35.7676H78.3705L81.0636 21.2826H78.4373L78.4378 21.2828ZM216.168 32.4108H214.535L217.225 17.9258H212.034L210.682 25.1661H208.056L209.402 17.9258H204.205L200.898 35.7676H206.089L207.435 28.5234H210.067L208.721 35.7676H210.566H213.912H215.573L216.168 32.4106V32.4108ZM99.6354 17.9258L99.0206 21.2828H93.9568L93.2255 25.2094H98.289L97.6742 28.5664H92.5879L91.8788 32.407H96.9427L96.3219 35.7676H86.067L89.3747 17.9258H99.6352H99.6354ZM117.509 17.9258L110.888 27.0153L114.085 35.7679H109.049L107.054 29.9425L102.832 35.7679H97.6079L104.228 26.6784L101.032 17.9258H106.062L108.062 23.7514L112.279 17.9258H117.509ZM122.019 28.5234L120.673 35.7676H115.481L118.789 17.9258H123.986L122.639 25.1661H125.266L126.617 17.9258H131.809L128.495 35.7676H123.304L124.65 28.5234H122.019ZM139.438 32.407L141.516 21.2828H138.889L136.812 32.407H139.438ZM144.014 35.7676H131L134.308 17.9258H147.327L144.014 35.7676H144.014ZM162.231 21.2826L159.533 35.7676H154.341L157.034 21.2826H154.408L151.71 35.7676H146.519L149.826 17.9258H170.669L167.361 35.7676H162.164L164.857 21.2826H162.231ZM173.168 17.9255H186.188L183.933 30.0997H176.11L175.052 35.7676H169.86L173.168 17.9258L173.168 17.9255ZM177.75 21.2826L176.725 26.7391H179.356L180.376 21.2826H177.75H177.75ZM193.817 32.4067L195.895 21.2826H193.268L191.191 32.4067H193.817ZM198.393 35.7674H185.379L188.686 17.9255H201.706L198.393 35.7674Z" fill="#24272A"/>
</svg>
