<svg width="99" height="94" viewBox="0 0 99 94" fill="none" xmlns="http://www.w3.org/2000/svg">
<path fill-rule="evenodd" clip-rule="evenodd" d="M60.5764 23.4385L65.1824 33.9069L60.609 32.2609C60.609 29.3312 60.609 26.3684 60.5761 23.4385H60.5764ZM90.1549 59.8468C85.6802 78.1169 69.1966 91.68 49.5542 91.68C29.9116 91.68 13.4278 78.1166 8.95337 59.8468L7.407 59.7813C11.8817 78.9398 29.0562 93.2265 49.5545 93.2265C70.0518 93.2265 87.2268 78.9401 91.7012 59.7813L90.1552 59.8468H90.1549ZM4.47891 53.4933C3.8865 53.4933 3.29433 53.3947 2.768 53.2302C2.24167 53.0654 1.78091 52.8024 1.38597 52.4073C0.991031 52.045 0.695074 51.5186 0.497604 50.893C0.267478 50.2679 0.201416 49.4774 0.201416 48.523V48.0294C0.201416 47.4368 0.267524 46.8444 0.366004 46.2845C0.464739 45.7249 0.56321 45.1653 0.727768 44.6059L2.8994 44.6714C2.80067 44.9675 2.73483 45.2971 2.63635 45.5934C2.57027 45.9224 2.50472 46.2188 2.47181 46.5148C2.43864 46.8111 2.37335 47.1077 2.37335 47.404C2.34018 47.6676 2.34016 47.9304 2.34016 48.1609C2.30725 48.8526 2.37331 49.3792 2.5047 49.774C2.63635 50.1688 2.80067 50.4324 3.03105 50.6297C3.26118 50.7947 3.52448 50.926 3.85359 50.9592C4.18296 50.9917 4.51155 51.0248 4.90674 51.0248C5.30143 51.0248 5.63003 51.0248 5.9594 50.9917C6.28852 50.9592 6.55185 50.86 6.81463 50.6957C7.04475 50.5309 7.24247 50.2679 7.37412 49.8728C7.50576 49.5107 7.60423 48.9513 7.60423 48.2599C7.60423 48.0294 7.60423 47.7986 7.60423 47.5025C7.60423 47.2062 7.57182 46.9429 7.53866 46.6138C7.50574 46.3175 7.47257 45.9885 7.407 45.6924C7.34144 45.3628 7.27565 45.0668 7.20983 44.7377L9.38146 44.8032C9.51311 45.3628 9.57869 45.9224 9.64451 46.4823C9.71008 47.0419 9.74326 47.6343 9.71009 48.2602V48.7535C9.67769 49.7082 9.54551 50.4654 9.31539 51.0913C9.08526 51.7164 8.75616 52.1772 8.32831 52.5393C7.93337 52.9014 7.44018 53.132 6.91359 53.2635C6.38726 53.3953 5.79484 53.4608 5.20268 53.4608L4.47916 53.4938L4.47891 53.4933ZM89.7273 49.1151C89.6942 47.9959 89.7929 46.9424 90.0567 45.9217L92.2283 45.8562C92.1623 46.1525 92.0969 46.4158 92.0311 46.7121C91.9645 46.9757 91.9316 47.2387 91.899 47.502C91.8661 47.7656 91.8334 48.0289 91.8334 48.3249C91.8334 48.5885 91.8334 48.8845 91.8334 49.2136C91.8334 49.7077 91.8663 50.0695 91.9319 50.3664C91.9985 50.6292 92.0641 50.8597 92.1299 50.9915C92.196 51.1233 92.2944 51.2223 92.3929 51.2223C92.4916 51.2548 92.5899 51.2548 92.6894 51.2548C92.8208 51.2548 92.9524 51.2223 93.0509 51.189C93.1494 51.156 93.2479 51.0242 93.3476 50.827C93.4132 50.6292 93.479 50.3328 93.5114 49.905C93.5446 49.4769 93.5445 48.8843 93.5445 48.1274V47.8968L95.255 47.436L96.8678 50.0363L96.7691 48.917L96.6707 45.7569L98.7762 45.6914L99.0061 52.7683L97.0319 52.8346L95.3874 50.6619C95.322 51.1555 95.1894 51.5833 95.0577 51.9124C94.8939 52.242 94.7294 52.538 94.4985 52.7353C94.3015 52.9331 94.0385 53.0979 93.7744 53.1964C93.5114 53.2952 93.2479 53.328 92.9522 53.3612H92.6891C92.2942 53.3612 91.9316 53.328 91.603 53.1964C91.2737 53.0979 90.978 52.8671 90.7149 52.5711C90.4514 52.2747 90.2541 51.8469 90.0901 51.3528C89.925 50.8264 89.8265 50.1678 89.8265 49.3779L89.7278 49.1143L89.7273 49.1151ZM89.201 42.9263L88.4445 39.7331L90.4182 39.272L91.1749 42.4655L89.201 42.9263ZM93.2805 41.9716C93.182 41.9716 93.0833 41.9716 92.9846 41.9716C92.7876 41.9716 92.5893 41.9386 92.458 41.8398C92.2937 41.7413 92.162 41.6095 92.0309 41.4453C91.8987 41.2802 91.7997 41.0502 91.7344 40.7536L91.7012 40.5893C91.6359 40.2925 91.6028 40.0297 91.6359 39.8319C91.6683 39.6346 91.7344 39.4368 91.8658 39.3056C91.9643 39.1405 92.1294 39.042 92.2939 38.9432C92.4582 38.8445 92.6564 38.7785 92.8534 38.746L93.1162 38.6797C93.3474 38.6142 93.5443 38.6142 93.7418 38.6142C93.9387 38.6142 94.1038 38.6467 94.2681 38.746C94.4326 38.8445 94.5641 38.976 94.6962 39.1405C94.8276 39.3056 94.9261 39.5356 94.9921 39.8319L95.0251 39.9967C95.0907 40.2928 95.1235 40.5563 95.0906 40.7539C95.0574 40.9514 94.9921 41.1489 94.8607 41.2805C94.7623 41.4123 94.5965 41.544 94.4327 41.6428C94.3666 41.6758 94.2681 41.7083 94.2028 41.7416L93.2807 41.9719L93.2805 41.9716ZM93.7415 28.2773L90.2539 34.7296L95.518 32.5569L96.439 34.7626L88.2137 38.1531L87.2926 35.9476L90.7805 29.4625L85.5157 31.6355L84.5947 29.4298L92.7547 26.0388L93.7413 28.2773H93.7415ZM10.4999 40.26L3.9523 38.4164L2.99816 41.7416L0.958131 41.1489L3.52447 32.1616L5.56475 32.7547L4.61056 36.1121L11.1579 37.9555L10.4999 40.26ZM12.3751 22.8786L11.9149 22.6156C11.5529 22.3853 11.1582 22.2535 10.7635 22.1548C10.3686 22.0557 9.97362 22.0557 9.57894 22.1872C9.184 22.286 8.78932 22.5168 8.39463 22.8786C7.99944 23.2082 7.63739 23.7016 7.24297 24.3605L7.04524 24.6895C6.65056 25.3809 6.25587 26.1051 5.86094 26.8622C5.466 27.6191 5.13737 28.3435 4.84117 29.0347L12.5731 33.4789L13.7574 31.4049L11.6847 30.2199C11.948 29.8906 12.2111 29.4958 12.4415 29.1007C12.6716 28.7056 12.9017 28.3103 13.1655 27.8824L13.3628 27.5534C13.6919 26.9607 13.922 26.4009 13.9878 25.9403C14.0534 25.4467 14.0533 25.0183 13.9217 24.6565C13.7901 24.2942 13.5931 23.9651 13.3293 23.6691C13.0992 23.3395 12.7706 23.0764 12.3751 22.8786ZM11.1579 27.1253C10.9602 27.4876 10.7633 27.8167 10.5331 28.146C10.3354 28.4751 10.1052 28.8044 9.84169 29.1334L7.73613 27.9157C7.93335 27.5206 8.13109 27.0928 8.32856 26.6974C8.52577 26.3024 8.72321 25.9733 8.85486 25.7097C9.08524 25.3149 9.28273 25.0183 9.44729 24.8541C9.61184 24.6893 9.77639 24.5577 9.94095 24.5247C10.1055 24.4922 10.2364 24.4922 10.4012 24.5577C10.5658 24.6233 10.6974 24.7225 10.8946 24.7883C11.0595 24.8868 11.224 24.9858 11.3557 25.0846C11.4871 25.1831 11.5858 25.3149 11.6187 25.4792C11.6518 25.6442 11.6519 25.8415 11.5858 26.1048C11.5526 26.4009 11.3881 26.7302 11.1579 27.125V27.1253ZM14.6782 20.8707C14.2506 20.4429 13.9215 19.982 13.6585 19.4882C13.3952 18.9946 13.2635 18.468 13.2635 17.9416C13.2635 17.3818 13.4281 16.8221 13.7245 16.1965C14.02 15.5714 14.5139 14.946 15.2377 14.2876L15.5995 13.9583C16.2904 13.2999 16.9486 12.8058 17.5734 12.5428C18.199 12.2797 18.7911 12.1479 19.3174 12.1804C19.8769 12.2134 20.3701 12.3452 20.8638 12.6413C21.3572 12.9376 21.7848 13.2999 22.2126 13.7278L22.7063 14.2214C23.1341 14.6492 23.4628 15.1105 23.7263 15.6039C23.9894 16.098 24.121 16.6246 24.121 17.1512C24.121 17.7108 23.9564 18.2707 23.6602 18.8958C23.364 19.5215 22.8375 20.1471 22.1466 20.8055L21.7845 21.1345C21.0937 21.7932 20.4357 22.2865 19.8106 22.5501C19.1855 22.8136 18.5931 22.9452 18.0668 22.9122C17.5076 22.8792 17.0139 22.7474 16.5205 22.4513C16.0271 22.1553 15.5992 21.8259 15.1713 21.3651L14.6779 20.871L14.6782 20.8707ZM16.6524 19.4554C16.8825 19.686 17.1131 19.9163 17.3764 20.1468C17.6065 20.3441 17.8696 20.4759 18.1658 20.5417C18.462 20.6074 18.7914 20.5417 19.1531 20.3774C19.5152 20.2123 19.9757 19.8833 20.4693 19.4227C20.9625 18.9286 21.3246 18.5007 21.4889 18.1389C21.6537 17.7766 21.7192 17.4475 21.6866 17.1512C21.6537 16.8552 21.522 16.5916 21.3248 16.3283C21.1276 16.0647 20.9299 15.8347 20.6666 15.5714C20.4364 15.3406 20.2063 15.1105 19.9757 14.9127C19.7456 14.7155 19.4823 14.5837 19.1861 14.5177C18.8899 14.4522 18.561 14.5177 18.1989 14.6827C17.8369 14.8475 17.3764 15.1763 16.8827 15.6372C16.3893 16.1313 16.0275 16.5591 15.8627 16.9209C15.6984 17.2832 15.6326 17.6123 15.6658 17.9086C15.6987 18.2047 15.8303 18.4682 16.0276 18.7315C16.2248 18.9621 16.4222 19.2257 16.6526 19.4557L16.6524 19.4554ZM29.2537 4.97092L27.7074 12.2129L25.1083 7.11036L22.9696 8.19684L27.0494 16.1635L29.1881 15.077L30.7344 7.83502L33.3335 12.9373L35.4722 11.8511L31.3924 3.8847L29.2537 4.97092ZM27.6744 2.69945L27.8058 2.96301C27.9051 3.16055 27.9706 3.32534 28.0036 3.52262C28.0367 3.72017 28.0367 3.91771 27.9706 4.11525C27.9051 4.31279 27.7734 4.51033 27.5757 4.67487C27.3785 4.87266 27.1149 5.0372 26.7863 5.20173L26.6871 5.23423C26.3585 5.39901 26.0623 5.53054 25.799 5.5638C25.5359 5.5963 25.3056 5.5963 25.1081 5.53054C24.9109 5.46503 24.7461 5.36575 24.6144 5.23423C24.483 5.1027 24.3514 4.93817 24.2853 4.74088L24.1537 4.47732C25.5359 3.78593 26.2924 3.42411 27.6744 2.69945ZM40.0124 10.7319L38.4993 4.11499L35.1101 4.90516L34.6167 2.83123L43.7304 0.724799L44.2239 2.79848L40.8352 3.5889L42.3489 10.2053L40.0124 10.7321V10.7319ZM56.2333 4.28004C56.2333 4.74088 56.1672 5.13571 56.0356 5.53054C55.9039 5.92562 55.7069 6.25469 55.4431 6.51825C55.1801 6.8143 54.8183 7.01185 54.3244 7.17664C53.8642 7.34142 53.2717 7.40719 52.5809 7.37392H52.2191C51.7254 7.37392 51.2646 7.34142 50.8044 7.34142C50.3434 7.30841 49.916 7.27566 49.4553 7.17664L49.3897 9.57989L46.9877 9.51361L47.2178 0.592764C47.975 0.527002 48.7973 0.460984 49.6198 0.460984C50.475 0.427719 51.2976 0.427719 52.0872 0.460984H52.4492C53.2057 0.493993 53.7981 0.592764 54.2918 0.757296C54.7852 0.954582 55.1469 1.18513 55.4429 1.48119C55.7391 1.7775 55.9366 2.10657 56.0353 2.50191C56.1346 2.89673 56.2001 3.32483 56.167 3.75266L56.233 4.27953L56.2333 4.28004ZM51.8902 5.23423C52.3512 5.23423 52.7128 5.23423 52.9761 5.16872C53.2394 5.10296 53.4368 5.00444 53.5355 4.90516C53.6669 4.77338 53.7327 4.64211 53.7659 4.47732C53.7983 4.31254 53.7983 4.14826 53.7983 3.95046C53.7983 3.75318 53.7983 3.5889 53.7983 3.42411C53.7983 3.25906 53.7328 3.12729 53.6014 2.99627C53.5021 2.86449 53.3049 2.76572 53.0745 2.69945C52.8444 2.63394 52.4826 2.60093 52.0219 2.56792C51.7257 2.56792 51.3639 2.56792 50.9031 2.56792C50.4424 2.56792 49.9821 2.60093 49.5542 2.63369L49.4882 5.06944C49.916 5.1352 50.3107 5.16821 50.6727 5.20122C51.1006 5.20122 51.4953 5.20122 51.89 5.23371L51.8902 5.23423ZM67.9794 6.38672L62.1558 4.41182L61.728 5.66232L66.3014 7.20964L65.6105 9.21756L61.0371 7.67023L60.6424 8.82273L66.4657 10.7976L65.7748 12.8055L57.6806 10.0732L60.5434 1.61323L68.6371 4.34554L67.9794 6.38647V6.38672ZM69.8217 9.28358L69.4599 9.8762C69.1308 10.3698 68.9007 10.8964 68.7364 11.4235C68.5718 11.9499 68.5386 12.4767 68.6371 13.0033C68.7364 13.5302 68.9665 14.0566 69.3611 14.5837C69.7563 15.1105 70.3483 15.6369 71.1381 16.131L71.5328 16.3946C72.0262 16.7236 72.5528 17.0197 73.0791 17.2502C73.6057 17.4805 74.1323 17.7111 74.6587 17.9086L75.8427 16.065C75.5468 15.9665 75.2179 15.8677 74.9217 15.7689C74.6255 15.6704 74.3293 15.5386 74.0333 15.4069C73.7371 15.2751 73.507 15.1433 73.2437 15.0118C73.0139 14.88 72.7829 14.7487 72.586 14.6169C71.9936 14.2549 71.5984 13.8928 71.3354 13.5962C71.0721 13.3002 70.9404 12.9711 70.9404 12.6748C70.9075 12.3785 70.9736 12.0819 71.1381 11.8191C71.2698 11.5223 71.4668 11.226 71.6645 10.8969C71.8622 10.5679 72.0591 10.2718 72.2569 10.0412C72.4541 9.77769 72.6848 9.61315 72.948 9.51438C73.2111 9.41587 73.5404 9.41587 73.9351 9.51438C74.3298 9.61315 74.8235 9.8437 75.3825 10.2058C75.5802 10.3376 75.7777 10.4693 76.008 10.6339C76.2382 10.7981 76.4688 10.9962 76.6989 11.1935C76.9291 11.391 77.1597 11.5883 77.3901 11.8191C77.6205 12.0494 77.8508 12.28 78.0478 12.51L79.2323 10.6664C78.8376 10.2385 78.443 9.8437 77.9825 9.48137C77.5546 9.11981 77.0612 8.75748 76.5673 8.42816L76.1726 8.16511C75.3827 7.671 74.6594 7.34219 74.0009 7.1774C73.343 7.04562 72.7835 7.04562 72.2572 7.1774C71.7308 7.30918 71.27 7.57249 70.8424 7.93456C70.5133 8.3624 70.1515 8.79023 69.8224 9.28434L69.8217 9.28358ZM77.9817 21.3648L82.9169 16.6574L80.5152 14.1556L82.0612 12.6743L88.5098 19.4557L86.9638 20.937L84.5617 18.4022L79.6265 23.1097L77.9815 21.3648H77.9817ZM63.6363 82.6596V84.2394C58.5695 84.7335 53.5024 85.2271 48.4029 85.7212V84.1409C52.8444 84.1739 61.6953 84.6017 63.6363 82.6596ZM63.6363 57.9044C61.6953 59.2872 52.8118 56.3579 48.4029 55.1066V56.6869C53.47 57.6416 58.5695 58.5633 63.6363 59.485V57.9044ZM63.6363 61.4272V63.007C58.5695 62.2828 53.5024 61.5584 48.4029 60.8345V59.2542C52.8444 60.3074 61.6953 62.8752 63.6363 61.4269V61.4272ZM63.6363 65.0152V66.5955C58.5695 66.0689 53.5024 65.5093 48.4029 64.9497V63.3693C52.8444 64.2908 61.6953 66.5625 63.6363 65.0152ZM63.6363 68.5704V70.1502C58.5695 69.7887 53.5024 69.4593 48.4029 69.097V67.5172C52.8444 68.2741 61.6953 70.1835 63.6363 68.5704ZM63.6363 72.0599V73.6402C58.5695 73.5084 53.5024 73.3766 48.4029 73.2451V71.6653C52.8444 72.2574 61.6953 73.7722 63.6363 72.0601V72.0599ZM63.6363 75.5824V77.1627C58.5695 77.2612 53.5024 77.327 48.4029 77.393V75.8127C52.8444 76.2077 61.6953 77.36 63.6363 75.5824ZM63.6363 79.1376V80.7179C58.5695 81.014 53.5024 81.2775 48.4029 81.5736V79.9938C52.8444 80.1911 61.6953 80.9812 63.6363 79.1379V79.1376ZM17.4752 68.8009C19.8111 72.7513 22.8382 76.2405 26.4245 79.0716V78.0839C29.1884 78.5447 33.9919 79.5652 36.9859 79.4994V80.1578L26.8851 79.4664C28.0038 80.3223 29.1884 81.1123 30.3727 81.8697C32.676 82.1332 35.1433 82.363 36.9529 82.2317V82.8901L31.9851 82.8244C33.4325 83.5815 34.9132 84.2729 36.4595 84.8653L36.9198 85.0301C40.8682 86.4456 45.0798 87.203 49.5214 87.203C53.1077 87.203 56.5621 86.7089 59.8525 85.7542C63.0113 84.8328 66.0052 83.5158 68.769 81.8367V80.7179H68.9007H68.9662H69.0323H69.164H69.2954H69.3609H69.427H69.5586H69.69L70.348 80.7504C71.2695 80.1248 72.1581 79.4667 73.0136 78.7753C71.6974 78.7423 70.348 78.7423 69.0323 78.7098H68.9991H68.8346V77.3597C69.8546 77.4915 71.8285 77.7876 73.9346 77.9851C74.6911 77.3267 75.4151 76.6353 76.1058 75.9442L68.8346 75.4506V74.1008C70.8417 74.4631 73.9673 75.0882 76.6653 75.3516C77.3235 74.6274 77.9814 73.9035 78.6068 73.1458L68.8346 72.1584V70.9076C71.4665 71.434 76.0402 72.488 79.0344 72.5867C79.5607 71.8953 80.0871 71.1712 80.5807 70.447L68.8343 68.8665V67.616C72.2235 68.4059 78.7705 70.1502 81.1394 69.5579C81.3371 69.2618 81.5015 68.9652 81.6992 68.6692V67.8132C77.4217 67.0891 73.1442 66.3322 68.867 65.6078V64.357C72.5852 65.3445 80.0536 67.649 81.6992 66.5625V65.2457C77.4217 64.291 73.1442 63.3366 68.867 62.3821V61.1309C72.5852 62.3158 80.0536 65.0152 81.6992 63.9949V62.843C77.4217 61.5917 73.1442 60.3079 68.867 59.0242V57.7737C72.5852 59.2217 80.0536 62.4811 81.6992 61.592V59.7818L68.867 55.1729L63.7017 57.0493V56.0618C58.6348 54.8438 53.5677 53.6255 48.4679 52.4078V50.828C52.877 52.342 61.7275 55.7655 63.7017 54.4817V53.0004C58.6348 51.3876 53.5677 49.7745 48.4679 48.1614V46.5816C52.877 48.425 61.7275 52.5398 63.7017 51.4206V48.7213L60.5429 47.6018V34.0722L65.8072 35.9814V36.9361L68.9657 38.0553L70.5781 37.4627V36.4752L71.1706 36.3435L71.2358 35.8826L69.5581 35.323L60.4444 22.1223H38.0053L31.1945 19.6535L30.9314 20.1471L29.1218 22.2865V22.6816L39.1896 26.3026L39.3542 26.8952L40.0454 27.1588V32.854L39.7821 33.8084C40.0122 34.4011 40.3084 34.6644 40.9334 35.0597C40.5058 35.5205 40.9335 36.2774 41.5914 35.8496C41.7563 35.5536 41.7562 35.3233 41.5585 35.0597C42.0522 34.8291 42.3484 34.5328 42.5129 33.9732L42.2826 32.953L42.1839 27.8835L42.6117 28.0477L43.2697 27.7517L43.2373 27.7187L56.4634 32.4922L56.4963 46.0217L48.4685 43.1244L37.0188 47.338V54.383V62.9745L26.4569 59.189L17.5081 62.4479V68.8015H17.4749L17.4752 68.8009ZM36.9529 65.5748V66.1674L26.3911 63.0405V61.7898C29.1552 62.8757 33.9917 64.9499 36.9529 65.575V65.5748ZM36.9529 68.1423V68.7354C33.4322 67.945 29.9119 67.1549 26.3911 66.3652V65.1139C29.1552 66.0359 33.9917 67.7477 36.9529 68.1423ZM36.9529 70.8416V71.4342L26.3911 69.6241V68.3734C29.1552 69.1303 33.9917 70.5788 36.9529 70.8419V70.8416ZM36.9529 73.7057V74.2986L26.3911 72.883V71.6323C29.1552 72.2574 33.9917 73.5414 36.9529 73.706V73.7057ZM36.9529 76.6031V77.1952L26.3911 76.1422V74.891C29.1552 75.4506 33.9917 76.5701 36.9529 76.6028V76.6031ZM60.0502 47.5685L58.7999 47.1074V45.9222L60.0502 45.5606V47.5685ZM58.01 46.8444L56.8588 46.4163V45.8897L58.01 46.0215V46.8444ZM57.6806 30.385L58.2404 28.3771L58.7667 27.6529L58.8983 28.4428L58.4047 31.2084L57.6806 30.3855V30.385ZM59.1285 31.7342L59.5892 28.6071L59.8196 27.8829L60.1156 28.8049L60.0826 32.0968L59.1285 31.7345V31.7342ZM54.5224 28.7716L56.2333 29.397L55.937 31.2076L54.1935 30.582L54.5221 28.7716H54.5224ZM31.4253 20.4759L33.136 21.1015L32.8398 22.9117L31.1623 22.2863L31.4253 20.4759ZM33.5312 21.2333L35.2418 21.8584L34.9458 23.6691L33.2018 23.0434L33.5312 21.2333ZM35.6367 21.9902L37.3474 22.6156L37.0512 24.426L35.2745 23.8008L35.6365 21.9902H35.6367ZM37.742 22.7471L39.4537 23.3728L39.1575 25.1831L37.4135 24.5577L37.742 22.7471ZM39.8155 23.5045L41.5264 24.1299L41.2302 25.9403L39.4534 25.3149L39.8153 23.5045H39.8155ZM41.9211 24.2617L43.632 24.8868L43.3357 26.6974L41.5588 26.0721L41.9208 24.2617H41.9211ZM44.0266 25.0186L45.7375 25.6442L45.4416 27.4543L43.6649 26.8292L44.0264 25.0186H44.0266ZM46.1325 25.7427L47.8434 26.3684L47.5472 28.1785L45.8031 27.5534L46.1325 25.7427ZM48.238 26.5002L49.949 27.1253L49.6528 28.9359L47.8758 28.3103L48.2378 26.5002H48.238ZM50.3107 27.2571L52.0216 27.8824L51.7254 29.6928L49.9818 29.0677L50.3105 27.2571H50.3107ZM52.4166 28.0142L54.1274 28.6398L53.8312 30.45L52.0872 29.8246L52.4166 28.0142ZM58.7664 34.9602L60.0168 34.5978V37.0996L58.7664 36.9681V34.9602ZM58.7664 42.2677L60.0168 41.9061V44.4079L58.7664 44.2764V42.2677ZM56.8586 42.2352L58.0097 42.367V44.5727L56.8586 44.9017V42.2354V42.2352ZM58.7664 38.6142L60.0168 38.2518V40.7536L58.7664 40.6221V38.6142ZM56.8586 38.5809L58.0097 38.7127V40.9184L56.8586 41.2475V38.5812V38.5809ZM56.8586 34.9272L58.0097 35.0589V37.2644L56.8586 37.5937V34.9274V34.9272ZM40.4076 27.4876L41.7233 27.9485L41.7894 33.1165L40.4079 32.9192V27.4876H40.4076ZM68.5715 35.1574L61.7609 24.9858L65.8407 34.1697L68.5713 35.1574H68.5715ZM57.7796 28.5738L57.3188 29.9564L56.6938 29.265L56.6609 29.0344C50.9029 26.9607 45.1122 24.8541 39.3542 22.7801L59.7538 22.7144L57.7796 28.5738ZM30.9317 20.8707L30.7015 22.1548L29.7474 22.5171V22.3193L30.9317 20.8707Z" fill="#0C57A6"/>
</svg>
