<svg width="179" height="53" viewBox="0 0 179 53" fill="none" xmlns="http://www.w3.org/2000/svg">
<path fill-rule="evenodd" clip-rule="evenodd" d="M81.5271 21.7702V18.1019H68.4199V14.4037C68.4199 12.8986 70.0754 12.133 71.3886 12.1225H82.555C83.2195 10.8979 83.8812 9.67283 84.548 8.45314H71.3886C68.4314 8.46747 64.7838 10.1886 64.7526 13.5564V25.9C64.7835 29.2686 68.4334 30.9859 71.3886 31.0053L84.5421 31.0051L82.5875 27.3368H71.3886C70.0708 27.3368 68.4199 26.5456 68.4199 25.0533V21.7687H81.5271V21.7705V21.7702ZM107.965 12.1222V8.45288H94.0683C91.3112 8.45288 87.4323 9.62676 87.4323 12.9866V17.2429C87.4323 18.3397 88.5918 19.2755 89.5791 19.5251L104.57 23.3687C104.896 23.4514 105.272 23.7189 105.272 24.0903V25.054C105.272 26.5486 103.708 27.3373 102.384 27.3373L87.4321 27.337V31.0053L102.383 31.0056C105.283 30.9866 108.786 29.4564 108.786 26.1117V22.3277C108.786 21.2322 107.765 20.2751 106.755 20.0171L91.7655 16.2029C91.42 16.1156 91.0637 15.8373 91.0637 15.4526V14.1938C91.0637 12.694 92.8289 12.1219 94.0686 12.1219H107.965L107.965 12.1222ZM169.758 31.0056V12.1222H178.618V8.45288H157.344V12.1222H166.089V31.0056H169.758ZM123.735 31.0056V12.1222H132.595V8.45288H111.321V12.1222H120.066V31.0056H123.735H123.735ZM165.736 43.7964H166.765L169.031 40.62V43.7964H170.086V39.0312L169.058 39.031C168.3 40.0963 167.55 41.1609 166.801 42.226V39.031H165.736V43.7961V43.7964ZM160.014 43.7964H161.043L163.309 40.62V43.7964H164.364V39.0312L163.335 39.031C162.578 40.0963 161.828 41.1609 161.079 42.226V39.031H160.015V43.7961L160.014 43.7964ZM155.773 43.7964H156.865V39.9699H159.148V39.031H155.773V43.7961V43.7964ZM152.126 42.9576C151.279 42.9576 150.673 42.2529 150.673 41.4228C150.673 40.5752 151.233 39.889 152.108 39.889C152.964 39.889 153.57 40.584 153.57 41.4228C153.57 42.2626 153.011 42.9576 152.126 42.9576ZM152.108 43.9046C153.579 43.9046 154.663 42.7768 154.663 41.4225C154.663 40.0418 153.589 38.9314 152.127 38.9314C150.665 38.9314 149.582 40.0597 149.582 41.4225C149.582 42.7935 150.656 43.9046 152.109 43.9046H152.108ZM144.184 43.8509C145.241 43.8509 145.89 43.4273 145.89 39.9701L147.379 39.9696V43.7966H148.471V39.0315L144.871 39.0312C144.871 42.6588 144.492 42.9302 143.942 42.9302C143.87 42.9302 143.698 42.9122 143.626 42.8938L143.545 43.7877C143.707 43.8143 144.014 43.8504 144.185 43.8504L144.183 43.8509H144.184ZM140.575 42.9576C139.726 42.9576 139.121 42.2529 139.121 41.4228C139.121 40.5752 139.681 39.889 140.556 39.889C141.413 39.889 142.019 40.584 142.019 41.4228C142.019 42.2626 141.458 42.9576 140.574 42.9576H140.574H140.575ZM140.555 43.9046C142.027 43.9046 143.11 42.7768 143.11 41.4225C143.11 40.0418 142.037 38.9314 140.574 38.9314C139.113 38.9314 138.03 40.0597 138.03 41.4225C138.03 42.7935 139.104 43.9046 140.557 43.9046H140.555ZM132.633 43.7964H133.725V41.874H135.827V43.7964H136.919V39.0312L135.827 39.031V40.9625L133.725 40.9628V39.0312L132.633 39.031V43.7961V43.7964ZM126.983 43.7964H128.146L129.31 42.1262L130.484 43.7964H131.675L129.915 41.3503L131.603 39.031L130.439 39.0307L129.338 40.6019L128.237 39.0307H127.047L128.734 41.3777L126.983 43.7961V43.7964ZM122.768 41.0798C122.867 40.34 123.336 39.825 124.004 39.825C124.726 39.825 125.141 40.3764 125.213 41.0798H122.768ZM124.13 43.9046C125.006 43.9046 125.629 43.5524 126.08 43.0118L125.439 42.4425C125.06 42.8127 124.681 43.0118 124.148 43.0118C123.445 43.0118 122.894 42.5785 122.777 41.8024H126.278C126.288 41.7483 126.297 41.5671 126.297 41.4947C126.297 40.1237 125.529 38.9314 124.013 38.9314C122.651 38.9314 121.685 40.0503 121.685 41.4138C121.685 42.9028 122.75 43.9046 124.13 43.9046H124.13H124.13ZM118.445 43.7964H119.546V39.9699H121.081V39.031H116.911V39.9699H118.446V43.7964H118.445ZM110.088 41.0798C110.187 40.34 110.656 39.825 111.324 39.825C112.046 39.825 112.461 40.3764 112.533 41.0798H110.088H110.088ZM111.45 43.9046C112.326 43.9046 112.948 43.5524 113.4 43.0118L112.759 42.4425C112.379 42.8127 112.002 43.0118 111.468 43.0118C110.763 43.0118 110.214 42.5785 110.097 41.8024H113.598C113.607 41.7483 113.616 41.5671 113.616 41.4947C113.616 40.1237 112.848 38.9314 111.333 38.9314C109.97 38.9314 109.005 40.0503 109.005 41.4138C109.005 42.9028 110.069 43.9046 111.45 43.9046H111.45ZM106.803 43.7964H107.895V39.0312L106.803 39.031V43.7961V43.7964ZM103.183 42.9117V41.5502H104.105C104.664 41.5502 104.988 41.7834 104.988 42.2073C104.988 42.6683 104.672 42.912 104.122 42.912H103.183L103.183 42.9117ZM102.092 43.7964H104.266C105.385 43.7964 106.08 43.1918 106.08 42.2081C106.08 41.1704 105.259 40.7009 104.185 40.7009L103.183 40.7007V39.0307H102.093V43.7959L102.092 43.7961V43.7964ZM96.4322 43.7964H97.5246V41.874H99.6279V43.7964H100.72V39.0312L99.6279 39.031V40.9625L97.5246 40.9628V39.0312L96.4322 39.031V43.7961V43.7964ZM92.8401 42.9488C92.1004 42.9488 91.45 42.3435 91.45 41.4228C91.45 40.4933 92.1004 39.8803 92.8401 39.8803C93.5806 39.8803 94.2036 40.4839 94.2036 41.4048C94.2036 42.3619 93.5904 42.9483 92.8401 42.9483V42.9488ZM90.3856 45.2408H91.4779V43.0564C91.8111 43.4989 92.309 43.8952 93.0936 43.8952C94.2306 43.8952 95.3138 43.0018 95.3138 41.4228C95.3138 39.825 94.2216 38.9317 93.0936 38.9317C92.3262 38.9317 91.8301 39.3287 91.4779 39.825V39.031H90.3856V45.2405V45.2408ZM85.7555 41.08C85.8555 40.34 86.3247 39.825 86.992 39.825C87.7141 39.825 88.129 40.3764 88.2015 41.08H85.7555ZM87.119 43.9046C87.9949 43.9046 88.6166 43.5524 89.0679 43.0118L88.4269 42.4425C88.0478 42.8127 87.669 43.0118 87.1369 43.0118C86.4322 43.0118 85.8819 42.5785 85.7656 41.8024H89.2668C89.276 41.7483 89.2847 41.5671 89.2847 41.4947C89.2847 40.1237 88.5171 38.9314 87.0012 38.9314C85.6377 38.9314 84.6724 40.0503 84.6724 41.4138C84.6724 42.9028 85.737 43.9049 87.1185 43.9049H87.1187V43.9046H87.119ZM80.6834 40.9989V39.8706H81.8209C82.3085 39.8706 82.5158 40.1058 82.5158 40.4114C82.5158 40.7544 82.2624 40.9989 81.8019 40.9989H80.6834ZM80.6834 42.9299V41.7389H81.8659C82.4523 41.7389 82.7324 41.9741 82.7324 42.3166C82.7324 42.6862 82.4524 42.9299 81.9202 42.9299H80.6837H80.6834ZM79.6093 43.7964H82.083C83.1655 43.7964 83.8428 43.3087 83.8428 42.5063C83.8428 41.8292 83.4364 41.4778 82.8594 41.3153C83.2651 41.134 83.6257 40.8276 83.6257 40.223C83.6257 39.4917 83.0037 39.0307 82.0556 39.0307H79.6093V43.7959V43.7961V43.7964ZM74.9166 42.8575C75.1967 42.271 75.3592 41.4673 75.3592 40.6008V39.9699H76.9303V42.8575H74.9166ZM73.2835 44.9426H74.1948L74.3033 43.7961L77.6427 43.7964V44.9429L78.5537 44.9423L78.6986 42.8575H78.0216V39.031H74.3289V39.6182C74.3289 40.9541 74.1938 42.0642 73.796 42.8575L73.282 42.8577V44.9426H73.2838V44.9429L73.2835 44.9426ZM152.181 21.7699V18.1016H139.075V14.4034C139.075 12.8983 140.729 12.1327 142.043 12.1222H153.209C153.874 10.8976 154.535 9.67181 155.202 8.45288H142.043C139.085 8.46722 135.439 10.1884 135.407 13.5572V25.9005C135.439 29.2691 139.087 30.9869 142.043 31.0058H155.197L153.242 27.3375L142.044 27.3373C140.726 27.3373 139.076 26.5461 139.076 25.054V21.7692H152.182L152.181 21.7705L152.181 21.7699Z" fill="#009846"/>
<path fill-rule="evenodd" clip-rule="evenodd" d="M7.45013 46.3752H46.5054V7.31987H7.45013V46.3752ZM13.9308 33.9676H36.5782L40.0263 40.4339H13.9298V33.9663L13.931 33.9676H13.9308ZM34.7273 23.6994H13.9308V30.1669H34.7285V23.6994H34.7273ZM13.9308 13.2599H40.0261L36.5126 19.729H13.9305V13.2599H13.9308ZM0.9823 52.8415H52.9727V0.852295H0.9823V52.8415Z" fill="#009846"/>
</svg>
