<svg width="161" height="44" viewBox="0 0 161 44" fill="none" xmlns="http://www.w3.org/2000/svg">
<path fill-rule="evenodd" clip-rule="evenodd" d="M41.8996 4.57267L58.1419 0.400879L58.2023 0.485094L61.3715 6.22597L47.4329 20.9309L56.6601 37.8925L42.6662 38.0012L39.91 33.0467L38.0283 33.1655L36.9274 37.8835L23.3986 37.8925L21.9048 35.1029L17.8073 37.8551L3.25414 37.8986L0.59436 33.1368L20.3575 20.9258L12.9851 5.18776L23.7112 12.2735L29.5998 12.9168L28.0325 0.436203L39.5982 0.418285L41.9001 4.57318L41.8996 4.57267Z" fill="#2A2A2A"/>
<path fill-rule="evenodd" clip-rule="evenodd" d="M74.9947 11.6979L73.6353 18.2328C80.4228 18.2328 83.6007 13.6799 90.356 13.62L94.7719 21.5965C94.5446 23.6519 94.2505 25.6866 93.8205 27.7282C93.2187 30.5869 92.2952 33.7236 89.8965 35.6034C87.6117 37.3939 84.9635 37.8925 82.1143 37.8925H57.0244L54.3633 33.1289L65.9598 5.19219L94.3094 0.404541L97.0818 5.35576L95.428 11.6621L74.995 11.6984L74.9947 11.6979ZM72.3843 24.3054L71.3934 29.7955H76.1558C76.7885 29.7955 77.7863 29.733 78.3172 29.338C78.8217 28.9625 79.08 28.0523 79.2021 27.472C79.2756 27.1242 79.3149 26.7609 79.3344 26.4059C79.3544 26.046 79.3618 24.9809 79.2044 24.6349C78.9021 24.3431 77.8015 24.3054 77.4441 24.3054H72.3843Z" fill="#2A2A2A"/>
<path fill-rule="evenodd" clip-rule="evenodd" d="M112.633 13.1716L120.353 5.32512L130.747 0.36341L134.261 6.39328L118.53 21.5364L127.244 37.4669L144.577 37.3597L156.488 0.326551L160.204 7.04088L152.977 43.3757L117.342 43.3391L114.642 38.5653L109.527 28.6585L107.546 37.8158L95.1526 37.8998L92.4641 33.1331L98.9099 30.0121L104.116 5.19739L111.73 0.318359L114.326 5.09501L112.633 13.1721L112.633 13.1716Z" fill="#2A2A2A"/>
<path fill-rule="evenodd" clip-rule="evenodd" d="M38.0878 7.73119L45.5263 0.437337L58.1515 0.393311L44.0929 15.7031L52.4488 33.1003H39.9073L34.6276 24.1613L32.7163 33.1003H20.0952L21.833 24.9741L13.5964 33.0629L0.622559 33.1065L16.3281 15.4075L8.77398 0.395359L21.4606 0.437849L25.3884 8.12435L26.9795 0.399966H39.598L38.0878 7.73119Z" fill="#4D4D4D"/>
<path d="M36.8504 9.65785L37.262 9.69394L45.8639 1.25949L56.2719 1.22314L43.1096 15.5572L51.1402 32.2771H40.3775L34.9125 23.0248H34.0291L32.0505 32.2771H21.1129L23.0915 23.0248L22.6797 22.9885L13.2582 32.241L2.45911 32.2771L17.3143 15.5364L10.1121 1.2234L20.9558 1.25975L25.2474 9.65836H25.9131L27.6504 1.2234H38.588L36.8507 9.65836L36.8504 9.65785Z" fill="white"/>
<path fill-rule="evenodd" clip-rule="evenodd" d="M72.3266 6.90562L70.9668 13.4405H80.9496C81.5245 13.4405 82.0999 13.4464 82.6748 13.4556C83.9946 13.4774 85.3139 13.5183 86.6332 13.559C87.5621 13.5877 88.5058 13.6276 89.4347 13.6197L90.3434 13.6115L90.262 14.5166C90.0058 17.3574 89.6712 20.1397 89.0828 22.9357C88.4807 25.7944 87.5569 28.931 85.1587 30.8109C82.8737 32.6014 80.2255 33.1 77.3763 33.1H54.338L61.2221 0.399902H94.2858L92.5959 6.90562H72.3263H72.3266ZM69.7162 19.5134L68.725 25.0032H73.4873C74.1203 25.0032 75.1181 24.9407 75.649 24.5457C76.1535 24.1702 76.4118 23.26 76.5339 22.6797C76.6073 22.3319 76.6465 21.9686 76.6659 21.6136C76.6859 21.2537 76.6936 20.1886 76.536 19.8426C76.2339 19.5508 75.133 19.5134 74.7757 19.5134H69.7162Z" fill="#4D4D4D"/>
<path d="M93.2215 1.22291L91.9594 6.08223H71.6571L69.9549 14.2638H80.9496C84.2025 14.2638 87.9048 14.4568 89.4419 14.4427C89.2732 16.3169 88.9909 19.3755 88.2772 22.7663C87.5633 26.1569 86.5924 28.6413 84.6512 30.1628C82.8289 31.5909 80.602 32.2766 77.3765 32.2766H55.3527L61.8901 1.22266H93.2215V1.22291ZM69.0283 18.69L67.7398 25.8264H73.4876C74.7006 25.8264 75.585 25.6194 76.1407 25.206C76.6964 24.7926 77.0962 24.007 77.3396 22.8493C77.6007 21.6088 77.5488 19.7579 77.184 19.331C76.8193 18.9035 76.0163 18.69 74.7758 18.69H69.0286H69.0283Z" fill="white"/>
<path fill-rule="evenodd" clip-rule="evenodd" d="M109.983 8.3974L117.704 0.58701L130.704 0.366364L115.537 16.2746L123.38 32.6044L137.661 32.5458L136.549 38.5112L114.62 38.547L106.946 23.8618L106.786 23.8661L104.805 33.0234L92.4573 33.1077L99.3419 0.404759L111.694 0.320801L109.983 8.39791L109.983 8.3974Z" fill="#4D4D4D"/>
<path d="M110.677 1.1504L108.867 9.69364L109.842 9.71207L118.053 1.40458L128.749 1.22284L114.548 16.118L122.863 33.4297L136.67 33.3728L135.865 37.6888L115.118 37.7225L107.437 23.0243L106.118 23.0604L104.14 32.2041L93.4734 32.2765L100.011 1.22259L110.677 1.15015L110.677 1.1504Z" fill="white"/>
<path fill-rule="evenodd" clip-rule="evenodd" d="M141.484 9.58999L136.64 9.56925L138.432 0.440617L156.497 0.320312L148.563 38.4144L135.481 38.4976L141.484 9.58973L141.484 9.58999Z" fill="#4D4D4D"/>
<path d="M147.893 37.5956L136.493 37.6682L142.495 8.7711L137.64 8.75036L139.11 1.25942L155.483 1.15063L147.893 37.5958L147.893 37.5956Z" fill="#F9AE04"/>
</svg>
