<svg width="175" height="57" viewBox="0 0 175 57" fill="none" xmlns="http://www.w3.org/2000/svg">
<path d="M151.57 50.209L155.313 48.5276L158.728 50.209C158.728 51.1292 159.03 51.7223 159.633 51.9877C160.11 52.2005 161.114 52.3064 162.647 52.3064C164.455 52.3064 165.623 52.1651 166.15 51.8815C166.778 51.5275 167.092 50.7222 167.092 49.4657V46.2796L166.904 46.2533C166.452 47.1735 165.799 47.7753 164.945 48.0584C164.342 48.2532 163.312 48.3504 161.855 48.3504C158.138 48.3504 155.627 48.0473 154.32 47.4479C153.436 47.0419 150.055 45.7383 149.628 44.8925C149.232 44.1064 151.758 43.8103 151.758 42.6423C151.758 40.0225 152.662 38.2348 154.471 37.279C156.003 36.4824 158.716 36.0844 162.609 36.0844C164.993 36.0844 163.669 34.8188 165.258 34.783C167.101 34.7413 171.164 37.1215 171.915 37.6243C173.447 38.651 174.213 40.828 174.213 44.1556V49.147C174.213 52.085 173.309 54.0678 171.5 55.0942C169.918 55.9967 166.966 56.448 162.647 56.448C158 56.448 154.962 55.9862 153.529 55.0673C153.211 54.8633 151.753 54.2159 151.118 53.8161C150.557 53.4631 150.816 53.3544 150.514 53.1747C149.829 52.7672 151.57 52.053 151.57 51.0583V50.209ZM163.475 44.2086C164.983 44.2086 165.962 44.1113 166.414 43.9165C166.866 43.722 167.092 43.2351 167.092 42.4565C167.092 41.5183 166.879 40.9122 166.452 40.6375C166.025 40.3634 165.033 40.2259 163.475 40.2259C161.391 40.2259 160.103 40.3409 159.613 40.5712C159.124 40.8014 158.879 41.4561 158.879 42.5358C158.879 43.2791 159.23 43.7573 159.934 43.9695C160.461 44.129 161.642 44.2086 163.475 44.2086H163.475Z" fill="#4D4D4D"/>
<path d="M122.117 43.3216L126.755 41.6138L130.171 43.3216L134.795 53.1859H134.951L134.457 43.3216L136.248 41.6202L139.653 43.3216V56.183H131.574L128.17 54.4604L126.949 46.319H126.793L127.313 56.1833H122.117L118.702 54.487L122.117 43.3221V43.3216Z" fill="#4D4D4D"/>
<path d="M142.019 41.7415C143.276 41.7415 145.918 43.4634 146.294 43.7501C146.634 44.0096 146.803 44.5528 146.803 45.3767C146.803 46.2086 146.64 46.751 146.313 47.0032C145.936 47.2975 145.113 47.4445 143.844 47.4445C142.284 47.4445 137.834 45.9202 137.761 44.9928C137.751 44.8725 140.885 45.5111 140.885 45.3767C140.885 44.5528 141.049 44.0157 141.375 43.7629C141.753 43.4695 140.75 41.7415 142.019 41.7415Z" fill="#4D4D4D"/>
<path d="M92.4968 36.2437L92.582 42.9061H97.0489L103.391 36.2437L108.039 34.5464L111.45 36.2437L102.743 45.1893L112.183 56.1827L103.924 56.1722L100.504 54.4874L97.0492 47.5151L92.5822 47.5256L92.497 56.1827H86.2623L82.8524 54.4703L86.2623 36.244L89.0724 34.552L92.497 36.244L92.4968 36.2437Z" fill="#4D4D4D"/>
<path d="M77.9014 36.2437V40.3856H62.4349V43.9696H71.6977C74.8953 43.9696 75.5569 44.4429 77.0879 45.39C78.6188 46.3371 79.3847 47.899 79.3847 50.0763C79.3847 52.2531 78.5823 53.8237 76.9863 54.802C75.4932 55.7176 74.8681 56.1827 71.6977 56.1827H54.3056L50.89 54.4856L54.3056 36.2437L74.5162 34.5413L77.9014 36.2437ZM62.4349 48.1115V52.0409H68.085C69.2773 52.0409 71.8062 51.9083 72.2667 51.6428C72.7272 51.3771 72.9576 50.8726 72.9576 50.1293C72.9576 49.333 72.7341 48.7975 72.2872 48.5231C71.84 48.2487 69.3042 48.1115 68.085 48.1115H62.4349Z" fill="#4D4D4D"/>
<path d="M31.5808 43.2465H33.7112L39.6062 36.2437L44.2807 34.5464L47.7028 36.2437L39.6771 45.3972L48.9102 56.1827H40.1033L36.6951 54.4905L33.7112 47.8663H31.5808V56.1827H24.8478L21.4692 54.4856L24.8478 47.8663H22.7383L16.3463 56.1827H7.53966L4.09943 54.4954L16.7725 45.3839L8.74679 36.2437L13.4344 34.5413L16.8436 36.2437L22.7383 43.2465H24.8688V36.2437L28.171 34.5518L31.5806 36.2437V43.2465H31.5808Z" fill="#4D4D4D"/>
<path d="M148.165 48.5065H155.323C155.323 49.4267 155.625 50.0198 156.228 50.2852C156.705 50.4979 157.71 50.6039 159.241 50.6039C161.05 50.6039 162.218 50.4626 162.745 50.1792C163.373 49.8252 163.687 49.02 163.687 47.7632V44.5771L163.499 44.5507C163.046 45.4709 162.393 46.0727 161.54 46.3561C160.937 46.5506 159.907 46.6479 158.45 46.6479C154.733 46.6479 152.221 46.3471 150.915 45.7454C149.207 44.9664 148.353 43.3646 148.353 40.9398C148.353 38.3204 149.257 36.5325 151.066 35.5765C152.598 34.7801 155.311 34.3818 159.204 34.3818C163.875 34.3818 166.977 34.8953 168.509 35.9218C170.042 36.9484 170.808 39.1255 170.808 42.4531V47.4445C170.808 50.3827 169.903 52.3652 168.095 53.3917C166.513 54.2942 163.561 54.7457 159.241 54.7457C154.595 54.7457 151.555 54.2855 150.124 53.365C148.818 52.5331 148.165 51.1965 148.165 49.356V48.5062L148.165 48.5065ZM160.071 42.5061C161.578 42.5061 162.557 42.4088 163.009 42.2142C163.461 42.0195 163.687 41.5326 163.687 40.7537C163.687 39.8156 163.474 39.2094 163.046 38.9353C162.62 38.6609 161.628 38.5237 160.07 38.5237C157.985 38.5237 156.698 38.6386 156.209 38.8687C155.719 39.0988 155.474 39.7536 155.474 40.8333C155.474 41.5766 155.825 42.0548 156.529 42.267C157.056 42.4264 158.237 42.5061 160.07 42.5061H160.071Z" fill="#E6E6E6"/>
<path d="M118.712 41.6189H126.766L131.39 51.4835H131.546L131.052 41.6189H136.248V54.4803H128.168L123.544 44.6161H123.389L123.908 54.4803H118.712V41.6189H118.712Z" fill="#E6E6E6"/>
<path d="M140.439 41.6189C141.696 41.6189 142.512 41.762 142.889 42.0474C143.229 42.3082 143.398 42.8501 143.398 43.6741C143.398 44.5065 143.235 45.0484 142.908 45.3005C142.531 45.5949 141.708 45.7418 140.439 45.7418C139.183 45.7418 138.376 45.6031 138.018 45.3256C137.659 45.0484 137.48 44.4975 137.48 43.6741C137.48 42.8501 137.644 42.3121 137.971 42.0602C138.347 41.7658 139.17 41.6189 140.439 41.6189H140.439Z" fill="#E6E6E6"/>
<path d="M89.0918 34.5413L89.177 41.2036H93.6437L99.9858 34.5413H108.045L99.3379 43.4869L108.777 54.4803H100.519L93.6434 45.8234H89.1768L89.0915 54.4803H82.8569V34.5413H89.0915H89.0918Z" fill="#E6E6E6"/>
<path d="M74.4967 34.5413V38.6831H59.0303V42.2672H68.293C71.4906 42.2672 72.1523 42.7407 73.6832 43.6878C75.2142 44.6346 75.9798 46.1966 75.9798 48.3738C75.9798 50.5511 75.1773 52.1215 73.5816 53.0996C72.0883 54.0152 71.4632 54.4803 68.293 54.4803H50.9009V34.5413H74.4967ZM59.0303 46.409V50.3384H64.68C65.8723 50.3384 68.4013 50.2058 68.8618 49.9404C69.3228 49.6749 69.5529 49.1704 69.5529 48.4271C69.5529 47.6305 69.3295 47.095 68.8823 46.8209C68.4351 46.5465 65.8992 46.409 64.68 46.409H59.0303Z" fill="#E6E6E6"/>
<path d="M28.1757 41.5443H30.3066L36.2013 34.5413H44.2982L36.2725 43.6947L45.5053 54.4803H36.6987L30.3066 46.1638H28.1757V54.4803H21.4641V46.1638H19.3337L12.9417 54.4803H4.13477L13.3678 43.6814L5.34217 34.5413H13.4385L19.3335 41.5443H21.4639V34.5413H28.1754V41.5443H28.1757Z" fill="#E6E6E6"/>
<path d="M174.61 24.1775V30.8859H171.612H163.477H14.6759H3.5425L0.754211 27.9738H11.8876H160.688H168.824H171.821V21.2651L174.61 24.1775H174.61ZM27.1894 14.6933C21.5243 17.2103 16.3868 20.0894 11.8876 23.2698V26.3317H14.6759V26.1822C18.4253 23.5319 22.6178 21.091 27.1894 18.8943V14.6931V14.6933ZM160.688 26.3281C157.173 23.825 153.264 21.507 149.014 19.4031V26.332H146.226V16.491C151.635 19.1684 156.492 22.1935 160.688 25.5052V26.3281ZM117.133 6.6981C126.797 8.71719 135.708 11.6153 143.561 15.2204V16.9018C136.409 13.8642 128.459 11.3944 119.921 9.61027V26.3317H117.133V6.6981ZM56.2822 9.39628C47.7638 11.1113 39.8154 13.5056 32.6421 16.4651V26.332H29.8539V13.553C37.804 10.2727 46.7061 7.68667 56.2819 5.95068V9.39628H56.2822ZM85.3752 6.36817C77.1908 6.47542 69.2675 7.17933 61.7351 8.40491V26.332H58.9465V5.49275C67.1527 4.15761 75.8226 3.44141 84.789 3.44141C84.9848 3.44141 85.1796 3.4432 85.3752 3.44397V6.36842V6.36817ZM88.0398 3.47391C97.2511 3.65207 106.122 4.58533 114.468 6.16697V8.57847C106.944 7.30041 99.0209 6.54452 90.8283 6.38608V26.332H88.0398V3.47391Z" fill="#4D4D4D"/>
<path d="M160.689 21.2648H171.822V27.9735H168.824H160.689H11.8882H0.754822V26.3317V21.2648H9.37024C27.0567 8.44074 54.266 0.223877 84.7893 0.223877C115.588 0.223877 143.017 8.58691 160.689 21.6106V21.2651V21.2648ZM160.689 26.3317V25.5049C156.493 22.1932 151.635 19.1682 146.226 16.4907V26.3317H160.689ZM143.561 15.2201C135.708 11.615 126.797 8.71694 117.133 6.69785V26.3315H143.561V15.2198V15.2201ZM11.8879 23.2696V26.3315H27.1898V14.6928C21.5247 17.2097 16.3871 20.0889 11.8879 23.2693V23.2696ZM29.8542 13.5527V26.3317H56.2823V5.95042C46.7064 7.68614 37.8041 10.2725 29.8542 13.5527ZM58.9469 5.49223V26.3315H85.3755V3.4432C85.1799 3.44269 84.9851 3.44064 84.7893 3.44064C75.823 3.44064 67.153 4.15685 58.9469 5.49198V5.49223ZM88.0399 3.47366V26.3317H114.468V6.16672C106.123 4.58508 97.2512 3.65182 88.0399 3.47366Z" fill="#E6E6E6"/>
</svg>
