<svg width="130" height="60" viewBox="0 0 130 60" fill="none" xmlns="http://www.w3.org/2000/svg">
<g clip-path="url(#clip0_76_2142)">
<path d="M121.543 20.021C126.698 20.021 129.276 23.8151 129.276 28.4392C129.276 33.0632 126.113 36.6202 121.543 36.6202C120.84 36.6202 119.435 36.7388 119.435 36.6202V20.021H121.543ZM33.205 31.1662V47.7654C33.205 47.8839 34.6109 47.7654 35.3139 47.7654C39.8831 47.7654 43.0464 44.2084 43.0464 39.5843C43.0464 34.9603 40.4689 31.1662 35.3139 31.1662H33.205ZM10.5932 20.2582H1.33755V47.5282H10.5932V20.2582ZM45.0381 7.92733L50.1931 5.91171L58.3943 7.92733V44.6827L50.1931 47.4097L45.0381 44.6827V7.92733ZM57.3399 27.135L50.4275 27.6092V30.0991L57.3399 29.6248V27.135ZM50.5446 32.4704V34.9603L57.457 34.0118V31.5219L50.5446 32.4704ZM57.3399 40.4143L50.5446 42.1928V44.6827L57.457 42.9042V40.4143H57.3399ZM57.3399 35.9088L50.4275 37.4502V39.8215L57.3399 38.2801V35.9088ZM57.3399 22.748H50.4275V25.2379H57.3399V22.748ZM57.3399 20.9695V18.4797L50.4275 17.8868V20.3767L57.3399 20.9695ZM57.3399 13.9742L50.4275 13.1442V15.6341L57.3399 16.4641V13.9742ZM50.4275 10.6543L57.3399 11.9586V9.35011L50.4275 8.04589V10.6543ZM13.8736 47.6468C17.7399 47.8839 20.6689 45.6312 20.6689 39.8215C20.6689 36.2645 18.56 34.486 16.9198 33.7746C15.8653 33.3004 14.9281 33.3004 14.9281 33.3004L14.8109 32.589C17.5056 32.2333 19.6145 29.862 19.6145 26.305C19.6145 22.2738 16.334 20.3767 14.4594 20.3767H11.9991V32.7075V47.7654C12.1162 47.6468 13.2878 47.6468 13.8736 47.6468ZM106.898 33.8932C107.133 24.8822 101.861 19.6653 96.0026 19.6653V33.8932V48.1211C101.861 48.1211 106.664 42.9042 106.898 33.8932ZM79.8345 20.2582H71.1647L79.8345 30.5734V20.2582ZM69.876 47.5282V20.2582H60.6204V47.5282H69.876ZM73.8594 47.5282C78.4286 47.5282 81.5919 43.9713 81.5919 39.3472C81.5919 34.7232 79.0144 30.9291 73.8594 30.9291H71.6334V47.5282C71.7505 47.6468 73.1564 47.5282 73.8594 47.5282ZM44.218 7.45306L50.1931 5.08175L59.3316 7.45306V13.9742H124.355C90.0274 11.01 83.3493 8.99442 69.7588 5.67458L50.8961 0.694824C29.1044 9.70581 22.192 10.6543 1.68903 14.0927H44.1008L44.218 7.45306ZM83.3493 33.8932C83.5837 42.9042 88.3872 48.1211 94.2452 48.1211V33.8932V19.6653C88.5044 19.6653 83.2322 24.8822 83.3493 33.8932ZM117.56 47.5282V20.2582H108.304V47.5282H117.56ZM31.5647 47.5282V20.2582H22.3091V47.5282H31.5647ZM38.4772 56.6578H41.7576V55.5907H38.4772V54.1679H41.992V53.1008H37.1884V59.6219H42.1091V58.5548H38.4772V56.6578ZM93.4251 57.4878L92.2535 53.1008H90.2618V59.6219H91.4333V54.5236L92.7221 59.6219H94.0109L95.2996 54.5236V59.6219H96.4712V53.1008H94.4795L93.4251 57.4878ZM88.5044 53.8122C89.0902 54.405 89.3245 55.235 89.3245 56.3021C89.3245 57.3692 89.0902 58.1992 88.5044 58.792C87.9186 59.3848 87.2156 59.7405 86.2783 59.7405C85.3411 59.7405 84.5209 59.5034 84.0523 58.9105C83.4665 58.3177 83.2322 57.4878 83.2322 56.4207C83.2322 55.7093 83.3493 55.235 83.5837 54.7607C83.7008 54.405 83.9351 54.1679 84.1695 53.8122C84.4038 53.5751 84.7552 53.338 84.9896 53.2194C85.341 53.1008 85.8097 52.9823 86.3955 52.9823C87.0984 52.9823 87.9186 53.2194 88.5044 53.8122ZM88.0357 56.3021C88.0357 55.5907 87.9186 54.9979 87.5671 54.6422C87.2156 54.2865 86.8641 54.0494 86.2783 54.0494C85.6925 54.0494 85.341 54.2865 84.9896 54.6422C84.6381 54.9979 84.5209 55.5907 84.5209 56.3021C84.5209 57.0135 84.6381 57.6063 84.9896 57.962C85.341 58.3177 85.8097 58.5548 86.2783 58.5548C86.747 58.5548 87.2156 58.3177 87.5671 57.962C87.8014 57.6063 88.0357 57.0135 88.0357 56.3021ZM97.8771 59.6219H99.1659V54.1679H101.743V59.6219H103.032V53.1008H97.8771V59.6219ZM81.1233 56.7764C80.889 56.5392 80.6547 56.3021 80.4203 56.3021C80.6547 56.1835 80.7718 56.065 80.889 55.8278C81.0061 55.7093 81.1233 55.4721 81.1233 55.235C81.2405 54.7607 81.3576 54.5236 81.4748 54.405C81.5919 54.2865 81.7091 54.1679 81.8263 54.0494C81.9434 53.9308 82.1777 53.9308 82.4121 53.9308H82.6464V52.9823C82.5292 52.9823 82.5292 52.9823 82.4121 52.9823C81.8263 52.9823 81.3576 53.1008 81.1233 53.2194C80.889 53.338 80.5375 53.8122 80.3032 54.5236C80.0689 55.1164 79.9517 55.4721 79.8345 55.5907C79.7174 55.7093 79.4831 55.8278 79.2487 55.8278V53.1008H77.96V59.6219H79.2487V56.7764C79.4831 56.7764 79.6002 56.7764 79.7174 56.8949C79.8345 57.0135 79.9517 57.1321 80.186 57.4878C80.3032 57.7249 80.3032 57.7249 80.3032 57.8435C80.3032 57.962 80.4203 57.962 80.4203 57.962L81.2405 59.6219H82.7635L81.9434 57.8435C81.4748 57.3692 81.3576 57.0135 81.1233 56.7764ZM107.484 53.1008L110.062 59.6219H108.656L108.07 58.1992H105.493L104.907 59.6219H103.501L105.961 53.1008H107.484ZM107.719 57.0135L106.781 54.6422L105.961 57.0135H107.719ZM71.2819 53.1008H73.9766V59.6219H72.6878V56.8949H72.4535C72.102 56.8949 71.7505 57.0135 71.6334 57.1321C71.5162 57.2506 71.1647 57.6063 70.8132 58.1992L69.876 59.6219H68.3529L69.173 58.3177C69.5245 57.8435 69.7588 57.4878 69.876 57.2506C70.1103 57.0135 70.3446 56.8949 70.5789 56.6578C69.9931 56.5392 69.5245 56.3021 69.2902 56.065C69.0559 55.7093 68.9387 55.3536 68.9387 54.8793C68.9387 54.5236 69.0559 54.1679 69.2902 53.8122C69.5245 53.4565 69.7588 53.338 70.1103 53.2194C70.2274 53.1008 70.6961 53.1008 71.2819 53.1008ZM71.7505 54.1679C71.2819 54.1679 70.9304 54.1679 70.6961 54.1679C70.5789 54.1679 70.3446 54.2865 70.2274 54.405C70.1103 54.5236 70.1103 54.7607 70.1103 54.9979C70.1103 55.235 70.1103 55.3536 70.2274 55.5907C70.3446 55.7093 70.4618 55.8278 70.6961 55.8278C70.8132 55.8278 71.2819 55.8278 71.7505 55.8278H72.6878V54.1679H71.7505ZM126.113 53.1008H128.807V59.6219H127.519V56.8949H127.284C126.933 56.8949 126.581 57.0135 126.464 57.1321C126.347 57.2506 125.995 57.6063 125.644 58.1992L124.707 59.6219H123.184L124.004 58.3177C124.355 57.8435 124.59 57.4878 124.707 57.2506C124.941 57.0135 125.175 56.8949 125.41 56.6578C124.824 56.5392 124.355 56.3021 124.121 56.065C123.887 55.7093 123.769 55.3536 123.769 54.8793C123.769 54.5236 123.887 54.1679 124.121 53.8122C124.355 53.4565 124.59 53.338 124.941 53.2194C125.058 53.1008 125.527 53.1008 126.113 53.1008ZM126.581 54.1679C126.113 54.1679 125.761 54.1679 125.527 54.1679C125.41 54.1679 125.175 54.2865 125.058 54.405C124.941 54.5236 124.941 54.7607 124.941 54.9979C124.941 55.235 124.941 55.3536 125.058 55.5907C125.175 55.7093 125.293 55.8278 125.527 55.8278C125.644 55.8278 126.113 55.8278 126.581 55.8278H127.519V54.1679H126.581ZM118.497 57.3692V52.9823H117.326V59.5034H118.614L121.192 55.235V59.5034H122.364V52.9823H121.075L118.497 57.3692ZM4.14938 58.1992C3.91506 58.4363 3.56358 58.5548 3.2121 58.5548C2.74346 58.5548 2.39198 58.4363 2.0405 58.0806C1.68903 57.7249 1.57187 57.1321 1.57187 56.3021C1.57187 55.4721 1.68903 54.9979 2.0405 54.6422C2.39198 54.2865 2.74346 54.1679 3.2121 54.1679C3.56358 54.1679 3.7979 54.2865 4.14938 54.405C4.3837 54.6422 4.50086 54.8793 4.61802 55.235L5.90677 54.8793C5.78961 54.4051 5.5553 53.9308 5.20382 53.6937C4.73518 53.2194 4.03222 52.9823 3.32926 52.9823C2.39198 52.9823 1.68903 53.338 1.10323 53.9308C0.634588 54.4051 0.400269 55.235 0.400269 56.4207C0.400269 57.4878 0.634588 58.1992 1.22039 58.792C1.80618 59.3848 2.50914 59.6219 3.32926 59.6219C4.03222 59.6219 4.61802 59.5034 5.08666 59.1477C5.43814 58.792 5.78962 58.3177 6.02393 57.6063L4.73518 57.2506C4.61802 57.6063 4.50086 57.962 4.14938 58.1992ZM114.631 55.5907H112.053V52.9823H110.765V59.5034H112.053V56.6578H114.631V59.5034H115.92V52.9823H114.631V55.5907ZM23.3636 53.8122C23.9494 54.405 24.1837 55.235 24.1837 56.3021C24.1837 57.3692 23.9494 58.1992 23.3636 58.792C22.7778 59.3848 22.0748 59.7405 21.1375 59.7405C20.2003 59.7405 19.3801 59.5034 18.9115 58.9105C18.3257 58.3177 18.0914 57.4878 18.0914 56.4207C18.0914 55.7093 18.2085 55.235 18.4429 54.7607C18.56 54.405 18.7943 54.1679 19.0287 53.8122C19.263 53.5751 19.6145 53.338 19.8488 53.2194C20.2003 53.1008 20.6689 52.9823 21.2547 52.9823C22.0748 52.9823 22.7778 53.2194 23.3636 53.8122ZM22.8949 56.3021C22.8949 55.5907 22.7778 54.9979 22.4263 54.6422C22.0748 54.2865 21.7233 54.0494 21.1375 54.0494C20.5517 54.0494 20.2003 54.2865 19.8488 54.6422C19.4973 54.9979 19.3801 55.5907 19.3801 56.3021C19.3801 57.0135 19.4973 57.6063 19.8488 57.962C20.2003 58.3177 20.6689 58.5548 21.1375 58.5548C21.6062 58.5548 22.0748 58.3177 22.4263 57.962C22.7778 57.6063 22.8949 57.0135 22.8949 56.3021ZM16.9198 53.8122C17.1541 54.1679 17.2713 54.5236 17.2713 55.1164C17.2713 55.4721 17.1541 55.8278 17.0369 56.065C16.9198 56.3021 16.6855 56.5392 16.4511 56.6578C16.2168 56.7764 15.9825 56.8949 15.7482 57.0135C15.3967 57.1321 15.0452 57.1321 14.3423 57.1321H13.5222V59.6219H12.2334V53.1008H14.4594C15.2796 53.1008 15.7482 53.1008 15.9825 53.2194C16.334 53.2194 16.6855 53.4565 16.9198 53.8122ZM15.9825 55.1164C15.9825 54.8793 15.8653 54.6422 15.7482 54.5236C15.631 54.4051 15.3967 54.2865 15.2796 54.2865C15.1624 54.2865 14.8109 54.2865 14.3423 54.2865H13.7565V56.1835H14.4594C14.9281 56.1835 15.2795 56.1835 15.5139 56.065C15.631 55.9464 15.8653 55.9464 15.8653 55.7093C15.8653 55.4721 15.9825 55.235 15.9825 55.1164ZM6.37541 54.1679H8.24997V59.6219H9.53873V54.1679H11.4133V53.1008H6.37541V54.1679ZM26.5269 57.3692V52.9823H25.3553V59.5034H26.644L29.2216 55.235V59.5034H30.3932V52.9823H29.1044L26.5269 57.3692ZM31.2133 54.1679H33.205V59.6219H34.4937V54.1679H36.3683V53.1008H31.2133V54.1679ZM59.8002 55.5907H57.2227V52.9823H55.934V59.5034H57.2227V56.6578H59.8002V59.5034H61.089V52.9823H59.8002V55.5907ZM65.6582 53.1008L68.2357 59.6219H66.8298L66.244 58.1992H63.6665L63.0807 59.6219H61.6748L64.1351 53.1008H65.6582ZM65.8925 57.0135L64.9553 54.6422L64.1351 57.0135H65.8925ZM54.2937 56.3021C54.6452 56.6578 54.8795 57.1321 54.8795 57.7249C54.8795 58.1991 54.7624 58.5548 54.528 58.9105C54.2937 59.2662 54.0594 59.3848 53.8251 59.5034C53.5908 59.6219 53.1221 59.6219 52.5363 59.6219H49.4902V53.1008H50.7789V55.7093H52.5363C53.3565 55.7093 53.9423 55.8278 54.2937 56.3021ZM53.5908 57.6063C53.5908 57.2506 53.4736 57.1321 53.2393 56.8949C53.005 56.7764 52.6535 56.6578 52.1849 56.6578H50.7789V58.4363H52.0677C52.4192 58.4363 52.7707 58.4363 52.8878 58.3177C53.005 58.3177 53.2393 58.1992 53.3565 58.0806C53.4736 57.962 53.5908 57.8435 53.5908 57.6063ZM43.6322 56.7764V57.8435C43.6322 58.0806 43.6322 58.3177 43.515 58.4363C43.3979 58.5548 43.2807 58.5548 42.9292 58.5548H42.6949V59.6219C43.0464 59.6219 43.3979 59.6219 43.515 59.6219C43.9837 59.6219 44.218 59.5034 44.4523 59.3848C44.6866 59.2662 44.8038 58.9105 44.8038 58.6734C44.8038 58.3177 44.921 57.8435 44.921 57.0135V54.2865H46.7955V59.7405H48.0843V53.2194H43.6322V56.7764Z" fill="#054798"/>
</g>
<defs>
<clipPath id="clip0_76_2142">
<rect width="128.876" height="59.2828" fill="white" transform="translate(0.400269 0.694824)"/>
</clipPath>
</defs>
</svg>
