<svg width="201" height="69" viewBox="0 0 201 69" fill="none" xmlns="http://www.w3.org/2000/svg">
<path fill-rule="evenodd" clip-rule="evenodd" d="M33.9971 0.385992L33.7923 0.386505V0.385992C33.3728 0.38932 32.9548 0.399314 32.5389 0.416976V0.417988C32.0459 0.43949 31.5556 0.471491 31.0685 0.513214C31.562 0.513726 32.0523 0.52959 32.5389 0.558259V17.8948C32.9533 17.8213 33.3712 17.7586 33.7923 17.7059V0.662697C46.4835 2.03572 56.3634 12.7823 56.3634 25.8386C56.3634 34.2262 52.2854 41.66 46.0046 46.2688V66.101C58.8287 61.2506 67.9483 48.8599 67.9483 34.337C67.9483 15.5862 52.7479 0.385742 33.9971 0.385742V0.385992ZM23.3145 40.3226C24.4848 40.3226 25.2834 41.2715 25.0985 42.4418C24.9137 43.6123 23.8148 44.5609 22.6445 44.5609C21.4742 44.5609 20.6756 43.6123 20.8605 42.4418C21.0453 41.2715 22.1444 40.3226 23.3145 40.3226ZM28.1917 39.6509H46.4188L46.6753 38.0299H28.4481L28.1917 39.6509ZM46.8728 36.7792H39.1139L41.1166 24.1108H48.8753L46.8728 36.7792ZM37.4929 36.7792H29.7342L31.7367 24.1108H39.4953L37.4929 36.7792ZM26.8977 39.1183H19.1391L20.2328 32.2002C20.6301 29.6871 23.0111 27.6311 25.524 27.6311H28.7139L26.8977 39.1185V39.1183ZM40.7196 40.3226C41.8899 40.3226 42.6886 41.2715 42.5038 42.4418C42.319 43.6123 41.22 44.5609 40.0498 44.5609C38.8795 44.5609 38.0809 43.6123 38.2657 42.4418C38.4505 41.2715 39.5493 40.3226 40.7196 40.3226ZM28.6903 18.8951C29.2883 18.6881 29.8964 18.503 30.5141 18.3405V0.562109C29.9013 0.625077 29.2934 0.705197 28.6903 0.800418V18.8951ZM24.0394 21.0581C24.9993 20.4862 25.9995 19.9766 27.0362 19.5333V1.10322C26.02 1.31593 25.02 1.57293 24.0394 1.8742V21.0578V21.0581ZM34.0173 68.2857L34.2221 68.2852V68.2855C34.6416 68.2824 35.0597 68.2724 35.4756 68.2545V68.254C35.9689 68.2322 36.4587 68.2002 36.9458 68.1587C36.4523 68.1582 35.9622 68.1424 35.4756 68.1134V50.7769C35.0612 50.8504 34.6431 50.9133 34.2221 50.966V68.009C21.5308 66.6362 11.651 55.8894 11.651 42.8331C11.651 34.4458 15.7291 27.0119 22.0098 22.4029V2.57069C9.18575 7.42106 0.06604 19.8123 0.06604 34.3347C0.06604 53.0855 15.2665 68.2862 34.0173 68.2862V68.2857ZM43.975 47.6134C43.0151 48.1852 42.0148 48.6954 40.9781 49.1382V67.5685C41.9943 67.3558 42.9944 67.0985 43.975 66.797V47.6134ZM39.324 49.7763C38.7261 49.9836 38.1179 50.169 37.5003 50.3315V68.1098C38.1136 68.0464 38.721 67.9665 39.324 67.8716V49.7766V49.7763Z" fill="#0066A6"/>
<path d="M82.2269 23.2816V12.7239H84.4743V17.4381L88.2074 12.7239H90.9826L86.7854 17.6782L91.2675 23.2816H88.4922L85.2947 19.0527L84.474 20.0367V23.2813H82.2267L82.2269 23.2816ZM91.3256 19.4485C91.3256 18.7149 91.4838 18.0501 91.8004 17.4511C92.1168 16.8496 92.5864 16.3671 93.209 15.9977C93.8289 15.6309 94.5464 15.4464 95.3617 15.4464C96.1823 15.4464 96.9024 15.6309 97.5277 15.9977C98.1503 16.3668 98.6223 16.8496 98.9392 17.4511C99.2556 18.0501 99.4137 18.7149 99.4137 19.4485C99.4137 19.9916 99.319 20.5089 99.1314 20.9971C98.9442 21.4821 98.6803 21.9096 98.3424 22.2792C98.0048 22.646 97.5776 22.936 97.0631 23.1498C96.5483 23.3632 95.9817 23.4715 95.3615 23.4715C94.5462 23.4715 93.829 23.287 93.2088 22.9202C92.5862 22.5511 92.1165 22.0655 91.8001 21.4588C91.4835 20.8547 91.3253 20.1846 91.3253 19.4485H91.3256ZM93.4148 19.4485C93.4148 20.0764 93.5889 20.6065 93.9373 21.0362C94.2854 21.4663 94.7602 21.6828 95.3617 21.6828C95.9658 21.6828 96.4432 21.4665 96.7941 21.0362C97.1476 20.6065 97.3243 20.0761 97.3243 19.4485C97.3243 18.8231 97.1474 18.2981 96.7941 17.8737C96.4432 17.4488 95.9658 17.2353 95.3617 17.2353C94.7602 17.2353 94.2854 17.4488 93.9373 17.8737C93.5889 18.2984 93.4148 18.8231 93.4148 19.4485ZM100.897 23.2816V15.6366H103.54L105.426 20.1977L107.276 15.6366H109.935V23.2816H107.924V18.3112L105.883 23.2816H104.964L102.907 18.3112V23.2816H100.897ZM111.436 19.1001C111.436 17.2748 111.763 15.9081 112.417 15.0005C113.071 14.0905 114.071 13.5496 115.411 13.3728C116.039 13.2804 116.482 13.1828 116.743 13.0827C117.004 12.9824 117.134 12.8636 117.134 12.7239H119.236C119.236 13.832 118.17 14.5177 116.044 14.7816C114.456 14.9925 113.538 15.6309 113.285 16.694C113.593 16.2931 113.973 15.9872 114.425 15.7709C114.876 15.5546 115.366 15.4464 115.897 15.4464C116.427 15.4464 116.923 15.5546 117.382 15.7709C117.841 15.9872 118.226 16.2773 118.537 16.6441C118.848 17.008 119.089 17.4329 119.263 17.9131C119.437 18.3959 119.524 18.9025 119.524 19.4326C119.524 20.158 119.368 20.8256 119.054 21.4322C118.74 22.0389 118.274 22.5321 117.648 22.9066C117.026 23.2839 116.3 23.4713 115.472 23.4713C114.641 23.4713 113.918 23.2788 113.303 22.8964C112.686 22.5109 112.222 21.9913 111.908 21.3347C111.594 20.6776 111.436 19.934 111.436 19.1001ZM113.525 19.4167C113.525 20.0605 113.699 20.6011 114.047 21.0339C114.395 21.4665 114.87 21.6828 115.472 21.6828C116.076 21.6828 116.553 21.4665 116.904 21.0339C117.258 20.6013 117.435 20.0605 117.435 19.4167C117.435 18.8075 117.258 18.2927 116.904 17.8683C116.553 17.4463 116.076 17.2353 115.472 17.2353C114.87 17.2353 114.395 17.4463 114.047 17.8683C113.699 18.293 113.525 18.8075 113.525 19.4167ZM121.054 23.2816V15.6366H123.064V20.2586L126.214 15.6366H128.24V23.2816H126.23V18.4804L122.987 23.2816H121.054H121.054ZM130.229 23.2816V15.6366H132.239V18.4699H135.405V15.6366H137.415V23.2816H135.405V20.2266H132.239V23.2816H130.229ZM138.914 20.939C138.914 20.596 138.966 20.2819 139.072 19.9973C139.177 19.7147 139.317 19.4802 139.494 19.2954C139.671 19.1108 139.877 18.9549 140.106 18.8282C140.338 18.7018 140.575 18.6119 140.818 18.5541C141.061 18.4985 141.309 18.4696 141.562 18.4696C142.074 18.4696 142.544 18.5513 142.971 18.7123C143.401 18.8758 143.741 19.1052 143.995 19.4032V18.3744C143.995 17.9894 143.842 17.6779 143.533 17.4432C143.224 17.2085 142.816 17.0923 142.309 17.0923C141.467 17.0923 140.721 17.393 140.072 17.9974L139.32 16.652C140.238 15.8472 141.349 15.4464 142.657 15.4464C143.116 15.4464 143.538 15.4963 143.921 15.5941C144.304 15.6916 144.654 15.8475 144.979 16.0638C145.301 16.2801 145.554 16.5834 145.733 16.9686C145.915 17.3541 146.005 17.8131 146.005 18.3429V23.2816H143.995V22.4904C143.731 22.7991 143.385 23.0418 142.958 23.213C142.528 23.3845 142.064 23.4715 141.562 23.4715C141.248 23.4715 140.94 23.4188 140.633 23.3105C140.328 23.2022 140.046 23.0466 139.784 22.8462C139.52 22.646 139.312 22.3793 139.151 22.047C138.993 21.7145 138.914 21.3452 138.914 20.939ZM140.924 20.9863C140.924 21.3319 141.064 21.6063 141.341 21.807C141.618 22.0102 141.961 22.1103 142.369 22.1103C142.707 22.1103 143.021 22.0522 143.314 21.9388C143.607 21.8256 143.834 21.6621 143.995 21.443V20.4984C143.834 20.2796 143.607 20.1158 143.314 20.0024C143.021 19.8892 142.707 19.8309 142.369 19.8309C141.955 19.8309 141.61 19.934 141.335 20.137C141.061 20.3403 140.924 20.6249 140.924 20.9863H140.924ZM147.271 17.3935V15.6366H153.571V17.3935H151.418V23.2816H149.408V17.3935H147.271H147.271ZM81.6888 35.7212C81.6888 35.3782 81.7416 35.0641 81.8473 34.7795C81.9528 34.4969 82.0926 34.2624 82.2692 34.0776C82.446 33.8931 82.6518 33.7372 82.8814 33.6105C83.1136 33.484 83.3512 33.3942 83.5938 33.3363C83.8362 33.2808 84.0845 33.2519 84.3376 33.2519C84.8496 33.2519 85.3192 33.3335 85.7465 33.4945C86.1762 33.6581 86.5167 33.8877 86.7698 34.1856V33.1566C86.7698 32.7717 86.617 32.4604 86.3083 32.2254C85.9996 31.9907 85.5906 31.8745 85.084 31.8745C84.2427 31.8745 83.4962 32.1752 82.8471 32.7796L82.0951 31.4342C83.0133 30.6295 84.1236 30.2286 85.4324 30.2286C85.8913 30.2286 86.3132 30.2785 86.6958 30.3763C87.0785 30.4738 87.4295 30.6297 87.7538 30.846C88.0758 31.0623 88.3287 31.3656 88.5084 31.7511C88.6902 32.1361 88.78 32.5953 88.78 33.1254V38.0638H86.7696V37.2726C86.5057 37.5813 86.1604 37.824 85.7332 37.9955C85.3031 38.1667 84.8385 38.2538 84.3373 38.2538C84.0235 38.2538 83.7149 38.2013 83.4087 38.093C83.1029 37.9845 82.8208 37.8288 82.5594 37.6287C82.2958 37.4283 82.0874 37.1615 81.9264 36.8293C81.7682 36.4968 81.6888 36.1274 81.6888 35.7212ZM83.6992 35.7685C83.6992 36.1141 83.839 36.3885 84.116 36.5892C84.3929 36.7924 84.7359 36.8925 85.1449 36.8925C85.4826 36.8925 85.7964 36.8347 86.0892 36.7213C86.382 36.6079 86.6088 36.4443 86.7698 36.2252V35.2807C86.6088 35.0618 86.382 34.898 86.0892 34.7846C85.7964 34.6715 85.4826 34.6134 85.1449 34.6134C84.7305 34.6134 84.385 34.7163 84.1106 34.9195C83.8362 35.1225 83.699 35.4074 83.699 35.7685H83.6992ZM90.7748 38.0638V30.4188H95.597C96.3357 30.4188 96.9108 30.6087 97.3173 30.9914C97.7261 31.3712 97.9293 31.8356 97.9293 32.3816C97.9293 32.8195 97.808 33.1914 97.5679 33.4973C97.3276 33.8035 97.0243 34.0118 96.6552 34.1199C97.0906 34.2176 97.4468 34.439 97.7289 34.7846C98.0113 35.1302 98.151 35.5338 98.151 35.993C98.151 36.5946 97.9424 37.0904 97.5256 37.4807C97.1089 37.8685 96.5287 38.0638 95.7821 38.0638H90.775H90.7748ZM92.7851 36.4174H95.2729C95.5153 36.4174 95.7081 36.3545 95.8478 36.2275C95.9902 36.1011 96.0613 35.927 96.0613 35.7053C96.0613 35.5049 95.9927 35.3362 95.8529 35.1988C95.7132 35.0618 95.5204 34.993 95.2726 34.993H92.7849V36.4174H92.7851ZM92.7851 33.3471H95.2012C95.4175 33.3471 95.5919 33.2864 95.7209 33.1648C95.8529 33.0432 95.9187 32.8932 95.9187 32.7138C95.9187 32.5236 95.8529 32.3682 95.7209 32.2467C95.5919 32.1253 95.4175 32.0649 95.2012 32.0649H92.7851V33.3471ZM99.3218 32.1758V30.4188H105.622V32.1758H103.469V38.0638H101.458V32.1758H99.3215H99.3218ZM106.392 34.2307C106.392 33.4971 106.55 32.8323 106.867 32.2334C107.183 31.6318 107.653 31.1493 108.275 30.78C108.895 30.4132 109.613 30.2286 110.428 30.2286C111.249 30.2286 111.969 30.4132 112.594 30.78C113.217 31.1491 113.689 31.6318 114.005 32.2334C114.322 32.8323 114.48 33.4971 114.48 34.2307C114.48 34.7744 114.386 35.2912 114.198 35.7793C114.011 36.2644 113.747 36.6918 113.409 37.0615C113.071 37.4283 112.644 37.7183 112.129 37.932C111.615 38.1455 111.048 38.2538 110.428 38.2538C109.613 38.2538 108.895 38.0692 108.275 37.7024C107.653 37.3333 107.183 36.8477 106.867 36.2411C106.55 35.637 106.392 34.9669 106.392 34.2307H106.392ZM108.481 34.2307C108.481 34.8586 108.655 35.3887 109.004 35.819C109.352 36.2487 109.827 36.465 110.428 36.465C111.032 36.465 111.509 36.2487 111.86 35.819C112.214 35.3889 112.391 34.8586 112.391 34.2307C112.391 33.6056 112.214 33.0804 111.86 32.656C111.509 32.2311 111.032 32.0176 110.428 32.0176C109.827 32.0176 109.352 32.2311 109.004 32.656C108.655 33.0806 108.481 33.6059 108.481 34.2307ZM115.963 38.0638V30.4188H118.607L120.493 34.9802L122.342 30.4188H125.001V38.0638H122.991V33.0937L120.949 38.0638H120.031L117.973 33.0937V38.0638H115.963H115.963ZM126.502 34.2307C126.502 33.4971 126.66 32.8323 126.977 32.2334C127.293 31.6318 127.763 31.1493 128.386 30.78C129.006 30.4132 129.723 30.2286 130.538 30.2286C131.359 30.2286 132.079 30.4132 132.704 30.78C133.327 31.1491 133.799 31.6318 134.116 32.2334C134.432 32.8323 134.59 33.4971 134.59 34.2307C134.59 34.7744 134.496 35.2912 134.308 35.7793C134.121 36.2644 133.857 36.6918 133.52 37.0615C133.182 37.4283 132.754 37.7183 132.24 37.932C131.725 38.1455 131.159 38.2538 130.538 38.2538C129.723 38.2538 129.006 38.0692 128.386 37.7024C127.763 37.3333 127.293 36.8477 126.977 36.2411C126.66 35.637 126.502 34.9669 126.502 34.2307ZM128.591 34.2307C128.591 34.8586 128.765 35.3887 129.114 35.819C129.462 36.2487 129.937 36.465 130.538 36.465C131.142 36.465 131.62 36.2487 131.971 35.819C132.324 35.3889 132.501 34.8586 132.501 34.2307C132.501 33.6056 132.324 33.0804 131.971 32.656C131.62 32.2311 131.142 32.0176 130.538 32.0176C129.937 32.0176 129.462 32.2311 129.114 32.656C128.765 33.0806 128.591 33.6059 128.591 34.2307ZM135.582 33.8823C135.582 32.057 135.91 30.6904 136.564 29.7832C137.218 28.873 138.218 28.3321 139.558 28.1553C140.186 28.0628 140.629 27.9653 140.89 27.8652C141.151 27.7649 141.281 27.6461 141.281 27.5064H143.383C143.383 28.6145 142.317 29.3002 140.191 29.5641C138.603 29.775 137.685 30.4134 137.432 31.4767C137.741 31.0753 138.12 30.7697 138.571 30.5534C139.023 30.3371 139.513 30.2289 140.043 30.2289C140.574 30.2289 141.07 30.3371 141.529 30.5534C141.988 30.7697 142.373 31.0597 142.684 31.4265C142.995 31.7908 143.236 32.2154 143.41 32.6956C143.584 33.1786 143.671 33.685 143.671 34.2151C143.671 34.9405 143.515 35.6081 143.201 36.2147C142.887 36.8214 142.42 37.3149 141.795 37.6893C141.173 38.0664 140.447 38.2538 139.619 38.2538C138.788 38.2538 138.065 38.0613 137.45 37.6789C136.833 37.2939 136.369 36.774 136.055 36.1172C135.741 35.4604 135.582 34.7165 135.582 33.8826V33.8823ZM137.672 34.1989C137.672 34.8427 137.846 35.3833 138.194 35.8162C138.542 36.2488 139.017 36.465 139.619 36.465C140.222 36.465 140.7 36.2488 141.051 35.8162C141.404 35.3836 141.581 34.8427 141.581 34.1989C141.581 33.5897 141.404 33.075 141.051 32.6506C140.7 32.2285 140.222 32.0176 139.619 32.0176C139.017 32.0176 138.542 32.2285 138.194 32.6506C137.846 33.0752 137.672 33.5897 137.672 34.1989ZM145.2 38.0638V30.4188H147.211V35.0408L150.361 30.4188H152.387V38.0638H150.376V33.2626L147.134 38.0638H145.2H145.2ZM153.663 38.2563V36.6102C153.977 36.6102 154.228 36.4231 154.421 36.0458C154.61 35.671 154.766 35.0301 154.882 34.1224L155.37 30.4185H161.562V38.0636H159.551V32.1755H157.124L156.876 34.3625C156.718 35.6974 156.383 36.6785 155.871 37.309C155.362 37.942 154.626 38.2561 153.663 38.2561L153.663 38.2563ZM163.551 38.0638V30.4188H165.561V33.0781H168.189C169.038 33.0781 169.698 33.3128 170.165 33.7799C170.632 34.2468 170.864 34.843 170.864 35.5658C170.864 36.2887 170.626 36.8876 170.149 37.3571C169.674 37.8291 169.023 38.0641 168.194 38.0641H163.551L163.551 38.0638ZM165.561 36.4174H167.87C168.149 36.4174 168.368 36.3386 168.532 36.1799C168.693 36.0191 168.774 35.8159 168.774 35.5653C168.774 35.3173 168.693 35.1143 168.532 34.9587C168.368 34.803 168.149 34.7237 167.87 34.7237H165.561V36.4172V36.4174ZM172.299 38.0638V30.4188H174.309V33.2521H177.475V30.4188H179.485V38.0638H177.475V35.0088H174.309V38.0638H172.299ZM181.474 38.0638V30.4188H183.485V33.0781H186.112C186.961 33.0781 187.621 33.3128 188.088 33.7799C188.555 34.2468 188.787 34.843 188.787 35.5658C188.787 36.2887 188.55 36.8876 188.072 37.3571C187.597 37.8291 186.946 38.0641 186.117 38.0641H181.474L181.474 38.0638ZM183.485 36.4174H185.793C186.072 36.4174 186.291 36.3386 186.455 36.1799C186.616 36.0191 186.697 35.8159 186.697 35.5653C186.697 35.3173 186.616 35.1143 186.455 34.9587C186.291 34.803 186.072 34.7237 185.793 34.7237H183.485V36.4172V36.4174ZM189.768 38.0638V30.4188H191.779V38.0638H189.768ZM192.757 38.0638L195.461 34.1355L192.913 30.4185H195.161L196.746 32.7768L198.313 30.4185H200.564L197.997 34.1355L200.732 38.0638H198.485L196.747 35.4811L194.992 38.0638H192.758H192.757ZM82.6758 51.9676C82.135 51.2552 81.8634 50.2764 81.8634 49.0257C81.8634 47.7781 82.135 46.7967 82.6758 46.0818C83.2167 45.3669 83.9209 45.0108 84.7838 45.0108C85.5962 45.0108 86.2795 45.4012 86.8336 46.1821V42.2881H88.844V46.1663C89.1023 45.7967 89.4055 45.512 89.7565 45.3116C90.1049 45.1109 90.4819 45.0108 90.8832 45.0108C91.7405 45.0108 92.437 45.3643 92.9753 46.0741C93.5133 46.7837 93.7824 47.7653 93.7824 49.0127C93.7824 50.2605 93.5131 51.2421 92.9753 51.9594C92.437 52.6771 91.7405 53.0357 90.8832 53.0357C90.0603 53.0357 89.3797 52.6454 88.8442 51.8644V55.7585H86.8338V51.8644C86.5804 52.2392 86.2743 52.5292 85.921 52.7324C85.565 52.9356 85.1875 53.0357 84.7841 53.0357C83.9212 53.0357 83.217 52.6799 82.6761 51.9676H82.6758ZM83.8733 49.0257C83.8733 49.6828 84.0184 50.2155 84.3112 50.6273C84.6041 51.0412 84.9788 51.247 85.4352 51.247C85.6937 51.247 85.9548 51.1654 86.2187 50.9992C86.4826 50.8354 86.6885 50.6273 86.8336 50.3821V47.6647C86.6939 47.4244 86.4906 47.2188 86.2241 47.0499C85.9576 46.8835 85.694 46.7993 85.4352 46.7993C84.9791 46.7993 84.6041 47.0051 84.3112 47.4192C84.0184 47.8308 83.8733 48.3663 83.8733 49.0255V49.0257ZM88.8437 50.3821C88.9834 50.6196 89.1836 50.8226 89.4452 50.9913C89.7091 51.1628 89.9676 51.247 90.2182 51.247C90.6772 51.247 91.0519 51.0412 91.3394 50.6273C91.6268 50.2155 91.772 49.6774 91.772 49.0127C91.772 48.3558 91.6268 47.8257 91.3394 47.4141C91.0519 47.0051 90.6774 46.7993 90.2182 46.7993C89.9676 46.7993 89.7091 46.8835 89.4429 47.0499C89.1762 47.2186 88.9784 47.4244 88.844 47.6647V50.3821H88.8437ZM94.3992 45.2008H96.5466L98.5411 50.5193L100.536 45.2008H102.707L99.1138 54.1016C98.8445 54.7745 98.4753 55.2494 98.0005 55.5186C97.5259 55.7902 96.9321 55.9325 96.2146 55.9484C95.8506 55.9484 95.5181 55.9115 95.2173 55.8401L95.5207 54.0355C95.7109 54.1172 95.922 54.1594 96.1542 54.1594C96.6843 54.1594 97.0378 53.9749 97.2119 53.6027L97.4996 52.9538L94.3995 45.2005L94.3992 45.2008ZM103.604 55.7585V45.2008H105.614V46.1665C106.226 45.3961 107.012 45.0111 107.972 45.0111C108.975 45.0111 109.79 45.3646 110.418 46.0744C111.045 46.7839 111.359 47.7656 111.359 49.0129C111.359 50.2608 111.045 51.2424 110.418 51.9596C109.79 52.6774 108.974 53.036 107.972 53.036C107.012 53.036 106.226 52.6456 105.614 51.8647V55.7587H103.604V55.7585ZM105.614 50.3821C105.783 50.6219 106.033 50.8277 106.363 50.9967C106.693 51.1631 107.017 51.2473 107.336 51.2473C107.914 51.2473 108.381 51.0415 108.737 50.6276C109.093 50.2157 109.27 49.6777 109.27 49.0129C109.27 48.351 109.093 47.8178 108.737 47.4116C108.381 47.0025 107.914 46.7995 107.336 46.7995C107.012 46.7995 106.685 46.8838 106.355 47.0501C106.026 47.2188 105.78 47.4246 105.614 47.665V50.3824V50.3821ZM112.824 52.8458V45.2008H118.728V46.9577H114.834V52.8458H112.823H112.824ZM119.514 49.0127C119.514 48.279 119.672 47.6143 119.989 47.0158C120.305 46.4143 120.775 45.9316 121.397 45.5622C122.017 45.1954 122.735 45.0108 123.55 45.0108C124.371 45.0108 125.091 45.1954 125.716 45.5622C126.338 45.9313 126.811 46.4143 127.128 47.0158C127.444 47.6146 127.602 48.2793 127.602 49.0127C127.602 49.5563 127.507 50.0731 127.32 50.5613C127.132 51.0468 126.869 51.4741 126.531 51.8434C126.193 52.2102 125.766 52.5002 125.252 52.714C124.737 52.9275 124.17 53.0357 123.55 53.0357C122.735 53.0357 122.017 52.8512 121.397 52.4844C120.774 52.1153 120.305 51.6297 119.988 51.023C119.672 50.419 119.514 49.7491 119.514 49.0127H119.514ZM121.603 49.0127C121.603 49.6405 121.777 50.1707 122.125 50.6009C122.474 51.031 122.949 51.247 123.55 51.247C124.154 51.247 124.632 51.031 124.982 50.6009C125.336 50.1709 125.513 49.6405 125.513 49.0127C125.513 48.3876 125.336 47.8626 124.982 47.4379C124.632 47.013 124.154 46.7995 123.55 46.7995C122.949 46.7995 122.474 47.013 122.125 47.4379C121.777 47.8628 121.603 48.3878 121.603 49.0127ZM129.085 52.8458V45.2008H131.095V48.0341H134.261V45.2008H136.271V52.8458H134.261V49.7908H131.095V52.8458H129.085ZM137.769 49.0127C137.769 48.279 137.928 47.6143 138.244 47.0158C138.561 46.4143 139.03 45.9316 139.653 45.5622C140.273 45.1954 140.991 45.0108 141.806 45.0108C142.626 45.0108 143.346 45.1954 143.972 45.5622C144.594 45.9313 145.067 46.4143 145.383 47.0158C145.7 47.6146 145.858 48.2793 145.858 49.0127C145.858 49.5563 145.763 50.0731 145.575 50.5613C145.388 51.0468 145.124 51.4741 144.787 51.8434C144.449 52.2102 144.022 52.5002 143.507 52.714C142.992 52.9275 142.426 53.0357 141.806 53.0357C140.99 53.0357 140.273 52.8512 139.653 52.4844C139.03 52.1153 138.56 51.6297 138.244 51.023C137.927 50.419 137.769 49.7491 137.769 49.0127H137.769ZM139.859 49.0127C139.859 49.6405 140.033 50.1707 140.381 50.6009C140.729 51.031 141.204 51.247 141.806 51.247C142.41 51.247 142.887 51.031 143.238 50.6009C143.592 50.1709 143.769 49.6405 143.769 49.0127C143.769 48.3876 143.592 47.8626 143.238 47.4379C142.887 47.013 142.41 46.7995 141.806 46.7995C141.204 46.7995 140.729 47.013 140.381 47.4379C140.033 47.8628 139.859 48.3878 139.859 49.0127ZM147.341 52.8458V45.2008H152.163C152.902 45.2008 153.477 45.3907 153.883 45.7734C154.292 46.1532 154.495 46.6176 154.495 47.1635C154.495 47.6015 154.374 47.9734 154.134 48.2793C153.893 48.5854 153.59 48.7941 153.221 48.9021C153.656 48.9996 154.013 49.2213 154.295 49.5666C154.577 49.9121 154.717 50.3158 154.717 50.775C154.717 51.3765 154.508 51.8724 154.092 52.2627C153.675 52.6505 153.095 52.8458 152.348 52.8458H147.341H147.341ZM149.351 51.1997H151.839C152.081 51.1997 152.274 51.1362 152.413 51.0095C152.556 50.883 152.627 50.709 152.627 50.4873C152.627 50.2869 152.558 50.1182 152.419 49.9807C152.279 49.8438 152.086 49.7749 151.838 49.7749H149.35V51.1997H149.351ZM149.351 48.1291H151.767C151.983 48.1291 152.158 48.0684 152.287 47.9468C152.419 47.8255 152.485 47.6752 152.485 47.4958C152.485 47.3059 152.419 47.1502 152.287 47.0286C152.158 46.9073 151.983 46.8469 151.767 46.8469H149.351V48.1291Z" fill="#0066A6"/>
</svg>
