<svg width="44" height="30" viewBox="0 0 44 30" fill="none" xmlns="http://www.w3.org/2000/svg">
<path fill-rule="evenodd" clip-rule="evenodd" d="M28.4673 0.0552346C23.175 0.0241652 21.4796 0.020713 16.1898 0L16.0548 29.9253L27.9745 29.9806C28.2244 29.9909 28.4778 30.0013 28.7332 30.0013C37.0355 30.0505 43.837 23.5082 43.9985 15.3175C44.1601 7.1269 37.6218 0.328285 29.324 0.0586856C29.0371 0.0493166 28.7507 0.0493166 28.4673 0.0552346V0.0552346ZM2.87609 20.7919L2.8691 19.5501C2.87246 18.5243 3.54501 17.6174 4.53484 17.3039C5.52467 16.9903 6.60653 17.3415 7.21436 18.1737L7.94857 19.1877L9.14809 18.8015C10.1798 18.4743 11.3058 18.8702 11.8953 19.7675C12.4848 20.6647 12.3915 21.8406 11.6676 22.6364L11.0558 23.4575L11.8055 24.4611C12.4335 25.3159 12.4119 26.4777 11.7525 27.3091C11.0932 28.1406 9.95556 28.4408 8.96366 28.0449L7.91158 27.6997L7.17037 28.7068C6.55199 29.5409 5.45667 29.8828 4.46462 29.5513C3.47256 29.2198 2.81312 28.2916 2.83561 27.2583C2.84261 26.8584 2.84611 26.451 2.8531 26.0511L1.65058 25.6684C0.682593 25.3547 0.0209573 24.472 0.000487993 23.4669C-0.0199813 22.4617 0.605182 21.5535 1.55962 21.2017C1.97545 21.0499 2.45076 20.9256 2.87759 20.7914L2.87609 20.7919ZM2.94956 3.77311L2.94506 2.52836C2.94667 1.50079 3.61982 0.591654 4.61136 0.277833C5.6029 -0.0359885 6.68639 0.317166 7.29338 1.15202C7.53828 1.48984 7.78269 1.8316 8.02759 2.16597L9.22311 1.78327C10.2544 1.4549 11.3808 1.84951 11.9713 2.74608C12.5619 3.64265 12.47 4.81855 11.7471 5.61517L11.1318 6.4363L11.8815 7.44334C12.5062 8.29823 12.4829 9.45765 11.8243 10.2874C11.1657 11.1171 10.0305 11.4173 9.03968 11.0237L7.98761 10.6825L7.24334 11.6879C6.62532 12.5215 5.53094 12.8635 4.5393 12.5329C3.54766 12.2023 2.88768 11.2756 2.90858 10.243C2.91557 9.83955 2.91907 9.43565 2.92607 9.03224L1.72355 8.653C0.753013 8.34085 0.0889426 7.4569 0.0684499 6.44986C0.047957 5.44282 0.675531 4.53327 1.63259 4.18294C2.04842 4.03498 2.52373 3.91021 2.94706 3.77607L2.94956 3.77311ZM24.0246 7.03613L23.9512 23.0147C26.7755 23.0251 26.0238 23.0561 28.8417 23.032C33.2599 23.0009 36.0388 19.4516 36.0603 15.0782C36.0813 10.689 33.3024 7.09334 28.8632 7.05882C26.0563 7.03811 26.8355 7.04846 24.0251 7.03811L24.0246 7.03613Z" fill="white"/>
</svg>
