<svg width="52" height="48" viewBox="0 0 52 48" fill="none" xmlns="http://www.w3.org/2000/svg">
<g id="Logo">
<g id="Group">
<g id="Group_2">
<path id="Path" fill-rule="evenodd" clip-rule="evenodd" d="M29.3394 43.5923H52V47.9865L23.5533 48L23.5329 14.6521L37.136 1.19966L37.1156 9.12553L29.2917 16.8627V36.0034H29.3394V43.5923Z" fill="#B3C4CD"/>
<path id="Path_2" fill-rule="evenodd" clip-rule="evenodd" d="M40.3392 20.064L40.346 40.5527L34.5803 40.5594V17.8534L46.2071 6.35552V6.35552L51.8569 0.761585V40.5392H46.2071V14.2679L40.3392 20.064Z" fill="#B3C4CD"/>
<path id="Path_3" fill-rule="evenodd" clip-rule="evenodd" d="M11.5177 20.1921V47.8719H17.3038L17.2765 17.9815L5.65662 6.48357V6.47683L0 0.889637V47.8719H5.65662V14.396L11.5177 20.1921Z" fill="#B3C4CD"/>
<path id="Path_4" fill-rule="evenodd" clip-rule="evenodd" d="M13.6645 4.89975L18.626 0L23.4239 4.74473L18.4624 9.65122L13.6645 4.89975Z" fill="#D9272E"/>
</g>
</g>
</g>
</svg>
